<?xml version="1.0" encoding="UTF-8" standalone="no"?>
<!-- Created with Inkscape (http://www.inkscape.org/) -->
<svg
   xmlns:dc="http://purl.org/dc/elements/1.1/"
   xmlns:cc="http://creativecommons.org/ns#"
   xmlns:rdf="http://www.w3.org/1999/02/22-rdf-syntax-ns#"
   xmlns:svg="http://www.w3.org/2000/svg"
   xmlns="http://www.w3.org/2000/svg"
   xmlns:sodipodi="http://sodipodi.sourceforge.net/DTD/sodipodi-0.dtd"
   xmlns:inkscape="http://www.inkscape.org/namespaces/inkscape"
   width="593.63483"
   height="278.00012"
   id="svg2"
   sodipodi:version="0.32"
   inkscape:version="0.46"
   version="1.0"
   sodipodi:docname="Logo.svg"
   inkscape:output_extension="org.inkscape.output.svg.inkscape">
  <defs
     id="defs4">
    <inkscape:perspective
       sodipodi:type="inkscape:persp3d"
       inkscape:vp_x="0 : 526.18109 : 1"
       inkscape:vp_y="0 : 1000 : 0"
       inkscape:vp_z="744.09448 : 526.18109 : 1"
       inkscape:persp3d-origin="372.04724 : 350.78739 : 1"
       id="perspective10" />
  </defs>
  <sodipodi:namedview
     id="base"
     pagecolor="#ffffff"
     bordercolor="#666666"
     borderopacity="1.0"
     gridtolerance="10000"
     guidetolerance="10"
     objecttolerance="10"
     inkscape:pageopacity="0.0"
     inkscape:pageshadow="2"
     inkscape:zoom="0.7"
     inkscape:cx="358.10897"
     inkscape:cy="155.64295"
     inkscape:document-units="px"
     inkscape:current-layer="layer1"
     showgrid="false"
     inkscape:window-width="1433"
     inkscape:window-height="907"
     inkscape:window-x="2228"
     inkscape:window-y="345" />
  <metadata
     id="metadata7">
    <rdf:RDF>
      <cc:Work
         rdf:about="">
        <dc:format>image/svg+xml</dc:format>
        <dc:type
           rdf:resource="http://purl.org/dc/dcmitype/StillImage" />
      </cc:Work>
    </rdf:RDF>
  </metadata>
  <g
     inkscape:label="Layer 1"
     inkscape:groupmode="layer"
     id="layer1"
     transform="translate(-18.415879,54.531002)">
    <g
       id="g3658"
       transform="matrix(-1,0,0,-1,600.46655,168.93811)">
      <path
         sodipodi:nodetypes="ccsscsssssssscscsscscssssscscsscsscsscc"
         id="path47"
         d="M 415.8728,129.53186 C 417.99138,129.55484 419.89448,128.24019 420.6228,126.25061 C 420.6228,126.25061 420.93236,125.26147 421.09155,124.21936 C 421.25074,123.17724 421.40255,121.70071 421.4353,119.62561 C 421.43989,119.3349 421.40385,118.78458 421.40405,118.46936 C 423.30133,84.60706 428.78678,58.54629 435.9978,41.31311 C 439.833,32.14761 444.13404,25.4232 448.27905,21.15686 C 452.42406,16.89052 456.20146,15.17787 459.52905,15.0631 C 462.85664,14.94833 466.30002,16.29061 470.1228,20.18811 C 473.94558,24.0856 477.85319,30.50875 481.21655,39.50061 C 487.92755,57.44229 492.44509,85.50011 492.09155,123.46936 C 492.09072,123.55834 492.09243,123.63027 492.09155,123.71936 C 491.99663,126.48078 494.15825,128.79631 496.91968,128.89123 C 499.6811,128.98616 501.99663,126.82453 502.09155,124.06311 C 502.09155,124.06311 493.70232,90.333245 519.3103,39.068792 C 545.05971,-12.478774 578.39274,-51.79458 581.77628,-53.62439 C 581.93632,-53.69913 582.04176,-53.85639 582.05013,-54.03282 C 582.0585,-54.20925 581.96842,-54.37579 581.81617,-54.46534 C 581.66393,-54.55489 581.4746,-54.5527 581.32446,-54.45966 C 577.55961,-52.42363 542.28432,-17.001223 514.54244,32.57975 C 489.71268,76.956108 501.08159,66.09454 499.3728,74.12561 C 497.37476,58.93597 494.40059,46.18398 490.59155,36.00061 C 486.89212,26.11026 482.46753,18.50986 477.2478,13.1881 C 472.02807,7.86635 465.71836,4.83778 459.1853,5.06311 C 452.65224,5.28844 446.46376,8.65864 441.09155,14.1881 C 435.71934,19.71757 430.95606,27.48698 426.77905,37.46936 C 422.5739,47.51898 418.97839,59.86616 416.2478,74.46936 C 414.85517,65.1542 413.14039,55.49527 410.4978,46.09436 C 405.45678,28.16111 400.76908,11.23635 399.35549,10.32332 C 399.2233,10.23148 399.0515,10.21913 398.90754,10.29114 C 398.76357,10.36315 398.67041,10.50801 398.66461,10.66887 C 398.65881,10.82973 398.74131,10.98093 398.87972,11.06311 C 400.03911,11.81195 402.31265,34.939463 404.8728,58.81311 C 406.72588,76.093264 407.35237,76.14905 409.6853,91.84436 C 411.04851,101.01568 411.35688,114.57367 411.3728,118.12561 C 411.2551,120.25793 411.02393,122.12057 410.9353,124.31311 C 410.87611,125.66585 411.36803,126.98476 412.29861,127.96835 C 413.22918,128.95193 414.51886,129.51609 415.8728,129.53186 L 415.8728,129.53186 z"
         style="fill:#000000;fill-opacity:1;fill-rule:evenodd;stroke:none;stroke-width:10;stroke-linecap:round;stroke-linejoin:round;stroke-miterlimit:4;stroke-dasharray:none;stroke-opacity:1" />
      <path
         sodipodi:nodetypes="cssscscssssssscsscsssc"
         id="path49"
         d="M 346.04468,129.50061 C 350.43339,129.57772 356.27047,125.47086 358.9353,122.06262 C 361.60013,118.65438 365.80101,107.8743 367.7478,103.42629 C 376.76013,82.835008 379.30131,74.172478 383.59139,63.43846 C 385.30744,59.1448 398.2763,13.96655 398.61807,13.75062 C 398.74751,13.66894 398.78623,13.4978 398.70456,13.36836 C 398.62288,13.23891 398.45173,13.20019 398.32229,13.28187 C 397.75349,13.64124 382.39175,57.52833 380.56268,61.62972 C 374.71639,74.739108 367.56474,91.153338 362.4978,101.26244 C 360.41443,105.41899 354.91342,115.09976 353.0603,117.46986 C 351.20718,119.83995 347.71759,121.52781 346.16968,121.50061 C 342.57024,121.4384 338.53122,119.01956 335.6853,116.40686 C 332.83938,113.79416 330.39547,109.7909 328.52905,104.62561 C 324.7962,94.295028 323.48038,79.635688 323.6228,64.90686 C 323.90763,35.44921 329.71655,5.75062 329.71655,5.75062 C 330.12122,3.97164 329.52492,2.11346 328.16064,0.90216 C 326.79635,-0.30915 324.88065,-0.68131 323.16208,-0.0689 C 321.44351,0.54351 320.19487,2.04327 319.90405,3.84437 C 319.90405,3.84437 313.91967,34.11096 313.6228,64.81311 C 313.47437,80.164188 314.65125,95.625678 319.1228,108.00061 C 321.35858,114.18808 324.44388,119.6872 328.90405,123.78186 C 333.36422,127.87653 340.66007,129.40754 346.04468,129.50061 z"
         style="fill:#000000;fill-opacity:1;fill-rule:evenodd;stroke:none;stroke-width:10;stroke-linecap:round;stroke-linejoin:round;stroke-miterlimit:4;stroke-dasharray:none;stroke-opacity:1" />
      <path
         sodipodi:nodetypes="cccsccsc"
         id="path51"
         d="M 333.70482,-6.44625 C 335.70807,-6.51089 337.47918,-7.76542 338.20482,-9.63375 C 342.10855,-19.30941 351.82437,-28.95316 354.54104,-30.6025 C 355.24866,-31.0312 355.47476,-31.95237 355.04606,-32.65998 C 354.61736,-33.3676 353.69619,-33.5937 352.98858,-33.165 C 350.22978,-31.49009 333.72265,-25.27859 328.92357,-13.38375 C 328.26182,-11.81162 328.44709,-10.01061 329.41505,-8.60613 C 330.383,-7.20165 332.00011,-6.38744 333.70482,-6.44625 z"
         style="fill:#000000;fill-opacity:1;fill-rule:evenodd;stroke:none;stroke-width:10;stroke-linecap:round;stroke-linejoin:round;stroke-miterlimit:4;stroke-dasharray:none;stroke-opacity:1" />
      <path
         sodipodi:nodetypes="ccscsscsssssscsc"
         id="path53"
         d="M 337.71061,67.91578 C 338.03215,67.90814 338.35017,67.84698 338.65161,67.73482 C 338.86473,67.70559 339.37262,67.63635 340.58789,67.57196 C 343.24589,67.43112 348.73788,67.28242 359.75167,67.28242 C 360.79585,67.29719 361.76709,66.74858 362.29349,65.84668 C 362.81989,64.94478 362.81989,63.82931 362.29349,62.9274 C 361.76709,62.0255 360.79585,61.4769 359.75167,61.49167 C 348.68674,61.49167 343.14194,61.64768 340.28026,61.7993 C 338.84941,61.87511 338.10785,61.94839 337.56584,62.03455 C 337.29483,62.07763 337.07753,62.09256 336.69723,62.23361 C 336.50708,62.30413 336.26276,62.38782 335.86481,62.70411 C 335.66583,62.86225 335.42604,63.08506 335.19525,63.46414 C 335.07986,63.65368 334.8877,64.15151 334.88762,64.15179 C 334.88753,64.15208 334.77904,64.98421 334.77904,64.98421 C 334.7693,65.76466 335.07503,66.51598 335.62693,67.06789 C 336.17884,67.61979 336.93017,67.92552 337.71061,67.91578 z"
         style="fill:#000000;fill-opacity:1;fill-rule:evenodd;stroke:none;stroke-width:10;stroke-linecap:round;stroke-linejoin:round;stroke-miterlimit:4;stroke-dasharray:none;stroke-opacity:1" />
      <path
         sodipodi:nodetypes="ccccssccsssscsscssscc"
         id="path2413"
         d="M 214.09155,131.90686 C 229.68279,132.05047 230.20791,132.06604 251.8728,131.81311 C 253.82348,131.78606 255.58033,130.62703 256.3728,128.84436 C 256.3728,128.84436 281.39872,72.776251 309.9353,8.62561 C 310.76967,6.97864 320.2251,4.50084 319.16494,2.9893 C 318.10478,1.47776 314.27768,0.16829 304.86887,1.40208 C 303.03828,1.64213 301.47587,2.84098 300.8103,4.56311 C 272.9746,67.13816 249.74183,119.1665 248.5603,121.81311 C 165.0723,122.69244 148.09505,119.79795 147.90405,119.78186 C 147.58568,119.7214 138.3612,117.99155 132.12524,110.3399 C 128.65735,106.08472 125.60858,100.0108 125.75227,94.394034 C 125.9767,85.621608 129.33823,78.323434 137.5041,69.456664 C 145.48087,60.79522 170.55388,51.80044 175.04586,51.09436 C 175.38776,51.04902 175.67819,50.82185 175.80452,50.50093 C 175.93086,50.18001 175.87324,49.81582 175.65399,49.54958 C 175.43475,49.28334 175.08838,49.15693 174.74919,49.21936 C 169.37853,50.595167 147.1074,56.198599 136.25085,65.551472 C 125.78524,74.567557 122.63926,79.965776 120.52905,92.584871 C 119.09065,101.18656 123.20154,108.24681 126.37035,113.94705 C 133.06012,125.98098 147.5392,130.72952 147.5392,130.72952 C 159.09467,131.71839 199.55687,131.67645 214.09155,131.90686 z"
         style="fill:#000000;fill-opacity:1;fill-rule:evenodd;stroke:none;stroke-width:10;stroke-linecap:round;stroke-linejoin:round;stroke-miterlimit:4;stroke-dasharray:none;stroke-opacity:1" />
      <path
         sodipodi:nodetypes="ccssscscssscsc"
         id="path2415"
         d="M 131.20445,223.46866 C 131.28357,223.4641 131.35663,223.42481 131.40405,223.36131 C 133.07477,221.20608 187.36029,143.9517 197.9353,107.81312 C 210.0042,66.56935 211.3101,29.5514 194.65405,10.06312 C 186.32602,0.31898 178.2255,-5.0799979 162.65405,-1.99938 C 145.10934,1.471623 139.55647,5.6890952 127.00032,16.96937 C 125.18813,18.067264 124.60908,20.426346 125.70698,22.238531 C 126.80487,24.050716 129.16395,24.629764 130.97613,23.53187 C 143.34739,14.185536 147.44877,11.192181 163.21655,7.96937 C 175.71456,5.4148736 180.71466,9.13846 187.0603,16.56312 C 199.75159,31.41245 199.93053,65.39693 188.34155,105.00062 C 178.18706,139.70213 132.61241,220.92636 130.9797,223.03256 C 130.91322,223.11526 130.9017,223.22936 130.95031,223.32367 C 130.99892,223.41799 131.09853,223.47481 131.20445,223.46866 z"
         style="fill:#000000;fill-opacity:1;fill-rule:evenodd;stroke:none;stroke-width:10;stroke-linecap:round;stroke-linejoin:round;stroke-miterlimit:4;stroke-dasharray:none;stroke-opacity:1" />
      <path
         sodipodi:nodetypes="csccccccscc"
         id="path2417"
         d="M 251.281,96.071242 C 252.41428,96.049542 253.46088,95.488032 254.06887,94.575532 C 254.67688,93.663032 254.7655,92.520762 254.30495,91.532832 C 242.29549,64.7548 231.29614,32.12074 222.8719,16.60995 C 218.86025,9.16378 219.60718,5.84654 211.71321,1.47862 C 207.47193,-0.0656 204.58742,-0.89863 200.42921,-0.54238 C 197.2821,-0.26948 193.89136,-1.27655 194.17746,1.72534 C 202.97123,4.66452 202.88241,4.8576 207.99157,9.10752 C 212.31866,15.36859 212.24957,15.49928 215.62648,21.97697 C 226.78169,43.3753 243.33225,83.351252 248.08788,94.074342 C 248.61928,95.303912 249.88696,96.096692 251.281,96.071242 z"
         style="fill:#000000;fill-opacity:1;fill-rule:evenodd;stroke:none;stroke-width:10;stroke-linecap:round;stroke-linejoin:round;stroke-miterlimit:4;stroke-dasharray:none;stroke-opacity:1" />
      <path
         sodipodi:nodetypes="cccssccscc"
         id="path2419"
         d="M 99.1978,47.83811 C 101.3971,47.79682 103.15046,45.98762 103.1228,43.78811 C 103.1228,43.78811 102.12278,15.81917 102.1228,10.99772 C 102.1381,9.91581 101.56967,8.90948 100.63518,8.36406 C 99.70069,7.81864 98.54491,7.81864 97.61042,8.36406 C 96.67593,8.90948 96.1075,9.91581 96.1228,10.99772 C 96.12278,15.81921 95.1228,43.78811 95.1228,43.78811 C 95.10918,44.87071 95.53497,45.9126 96.30289,46.67581 C 97.07082,47.43903 98.1153,47.85838 99.1978,47.83811 L 99.1978,47.83811 z"
         style="fill:#000000;fill-opacity:1;fill-rule:evenodd;stroke:none;stroke-width:10;stroke-linecap:round;stroke-linejoin:round;stroke-miterlimit:4;stroke-dasharray:none;stroke-opacity:1" />
      <path
         sodipodi:nodetypes="cssccsscc"
         id="path2421"
         d="M 111.62425,69.156862 C 113.0668,69.177272 114.40858,68.41936 115.13581,67.17337 C 115.86303,65.92738 115.86303,64.38634 115.13581,63.14035 C 114.40858,61.89436 113.0668,61.13647 111.62425,61.15687 C 111.62425,61.15687 48.3103,60.15687 48.3103,60.15687 C 46.50712,60.13137 44.82989,61.07875 43.92086,62.63622 C 43.01183,64.19371 43.01183,66.12001 43.92086,67.6775 C 44.82989,69.234992 46.50712,70.182372 48.3103,70.156862 C 48.3103,70.156862 111.62425,69.156862 111.62425,69.156862 z"
         style="fill:#000000;fill-opacity:1;fill-rule:evenodd;stroke:none;stroke-width:10;stroke-linecap:round;stroke-linejoin:round;stroke-miterlimit:4;stroke-dasharray:none;stroke-opacity:1" />
      <path
         sodipodi:nodetypes="ccsssssssssssssscsc"
         id="path2423"
         d="M 99.08529,146.08187 C 100.73477,146.0509 102.04979,144.694 102.02904,143.04437 C 102.02904,143.04437 104.02904,131.06101 104.02904,116.15687 C 104.02904,108.7048 104.02904,101.27494 104.02904,95.719371 C 104.02904,92.941581 104.02904,90.632711 104.02904,89.031871 C 104.02904,88.231441 104.02904,87.606461 104.02904,87.188121 C 104.02904,87.076561 104.02904,87.019871 104.02904,86.938121 C 104.02904,86.866591 104.02904,86.767281 104.02904,86.719371 C 104.02956,86.677701 104.02956,86.636031 104.02904,86.594371 C 104.02904,86.592081 104.02904,86.564731 104.02904,86.563121 C 104.02904,86.561501 94.02904,86.592861 94.02904,86.594371 C 94.02852,86.636031 94.02852,86.677701 94.02904,86.719371 C 94.02904,86.822021 94.02904,86.978951 94.02904,87.188121 C 94.02904,87.606451 94.02904,88.231451 94.02904,89.031871 C 94.02904,90.632711 94.02904,92.941581 94.02904,95.719371 C 94.02904,101.27494 94.02904,108.7048 94.02904,116.15687 C 94.02904,131.06101 96.02904,143.04437 96.02904,143.04437 C 96.01883,143.85632 96.33817,144.63773 96.91411,145.21014 C 97.49005,145.78256 98.27342,146.09707 99.08529,146.08187 z"
         style="fill:#000000;fill-opacity:1;fill-rule:evenodd;stroke:none;stroke-width:10;stroke-linecap:round;stroke-linejoin:round;stroke-miterlimit:4;stroke-dasharray:none;stroke-opacity:1" />
      <path
         sodipodi:nodetypes="cscsscssssssssscsscssssssc"
         id="path2425"
         d="M 59.27906,141.71936 C 70.2878,141.89827 81.27669,141.17697 90.12281,135.00061 C 98.96893,128.82425 104.18917,117.37253 104.02906,99.750607 C 104.03124,97.951487 103.06677,96.289877 101.50346,95.399447 C 99.94014,94.509007 98.01899,94.527017 96.47264,95.446607 C 94.92629,96.366197 93.99315,98.045597 94.02906,99.844357 C 94.17216,115.59315 90.18176,122.77912 84.40406,126.81311 C 78.62636,130.8471 69.69309,131.88758 59.34156,131.71936 C 59.31031,131.71907 59.27906,131.71907 59.24781,131.71936 C 48.70749,131.73351 40.95228,128.4757 35.84156,123.28186 C 30.73084,118.08803 28.02022,110.77734 28.52906,101.56311 C 28.70437,98.388577 28.58625,91.758797 28.49781,82.531857 C 28.40937,73.304917 28.34104,61.82111 28.59156,50.25061 C 28.84208,38.68011 29.40059,27.00549 30.52906,17.53186 C 31.65753,8.05823 34.23025,0.67146 35.12281,-1.09314 C 50.38693,-31.27055 150.12587,-46.81563 167.20972,-47.06189 C 167.56859,-47.064 167.89881,-47.25824 168.07504,-47.57087 C 168.25127,-47.88349 168.24649,-48.26658 168.0625,-48.5747 C 167.87851,-48.88283 167.54353,-49.06875 167.18472,-49.06189 C 149.76318,-48.81076 38.3475,-34.89242 27.12281,-7.06189 C 24.56444,-0.71865 21.7869,6.30937 20.59156,16.34436 C 19.39622,26.37935 18.84591,38.28429 18.59156,50.03186 C 18.33721,61.77943 18.40902,73.362377 18.49781,82.625607 C 18.5866,91.888847 18.6625,99.150227 18.56031,101.00061 C 17.92364,112.5296 21.48515,122.96409 28.71656,130.31311 C 35.94797,137.66213 46.61975,141.73636 59.27906,141.71936 z"
         style="fill:#000000;fill-opacity:1;fill-rule:evenodd;stroke:none;stroke-width:10;stroke-linecap:round;stroke-linejoin:round;stroke-miterlimit:4;stroke-dasharray:none;stroke-opacity:1" />
      <path
         sodipodi:nodetypes="cscccccc"
         id="path2429"
         d="M 217.63774,116.24395 C 217.11367,116.21314 217.57875,116.50395 219.06796,115.51214 C 220.32745,114.67332 221.0181,112.50837 220.73392,111.27876 C 221.00333,101.93298 229.68692,92.621232 231.38015,86.124162 C 232.15217,83.170402 229.14468,83.323442 225.82417,85.118952 C 215.9699,90.939772 209.26629,101.20051 210.19822,112.85851 C 210.59409,114.86547 212.37847,116.29519 214.42346,116.24395 L 217.63774,116.24395 z"
         style="fill:#000000;fill-opacity:1;fill-rule:evenodd;stroke:none;stroke-width:10;stroke-linecap:round;stroke-linejoin:round;stroke-miterlimit:4;stroke-dasharray:none;stroke-opacity:1" />
    </g>
  </g>
</svg>
