<?xml version="1.0" encoding="UTF-8" standalone="no"?>
<!-- Created with Inkscape (http://www.inkscape.org/) -->

<svg
   xmlns:dc="http://purl.org/dc/elements/1.1/"
   xmlns:cc="http://creativecommons.org/ns#"
   xmlns:rdf="http://www.w3.org/1999/02/22-rdf-syntax-ns#"
   xmlns:svg="http://www.w3.org/2000/svg"
   xmlns="http://www.w3.org/2000/svg"
   xmlns:xlink="http://www.w3.org/1999/xlink"
   xmlns:sodipodi="http://sodipodi.sourceforge.net/DTD/sodipodi-0.dtd"
   xmlns:inkscape="http://www.inkscape.org/namespaces/inkscape"
   width="640"
   height="640"
   id="svg2389"
   sodipodi:version="0.32"
   inkscape:version="0.47pre4 r22446"
   sodipodi:docname="Martta Logo.svg"
   inkscape:output_extension="org.inkscape.output.svg.inkscape"
   version="1.0"
   inkscape:export-filename="/home/gav/favicon.png"
   inkscape:export-xdpi="2.25"
   inkscape:export-ydpi="2.25">
  <defs
     id="defs2391">
    <linearGradient
       id="linearGradient3196">
      <stop
         id="stop3198"
         offset="0"
         style="stop-color:#89a7bf;stop-opacity:1;" />
      <stop
         style="stop-color:#6e8dd3;stop-opacity:1;"
         offset="0.63545811"
         id="stop3200" />
      <stop
         id="stop3202"
         offset="1"
         style="stop-color:#5473ab;stop-opacity:1;" />
    </linearGradient>
    <linearGradient
       id="linearGradient3175">
      <stop
         style="stop-color:#89a7bf;stop-opacity:1;"
         offset="0"
         id="stop3177" />
      <stop
         id="stop3194"
         offset="0.5"
         style="stop-color:#6e8dd3;stop-opacity:1;" />
      <stop
         style="stop-color:#5473ab;stop-opacity:1;"
         offset="1"
         id="stop3179" />
    </linearGradient>
    <linearGradient
       id="linearGradient5401">
      <stop
         style="stop-color:#ff0000;stop-opacity:0;"
         offset="0"
         id="stop5403" />
      <stop
         id="stop5413"
         offset="0"
         style="stop-color:#ff0000;stop-opacity:1;" />
      <stop
         style="stop-color:#ff0000;stop-opacity:0;"
         offset="1"
         id="stop5405" />
    </linearGradient>
    <inkscape:perspective
       sodipodi:type="inkscape:persp3d"
       inkscape:vp_x="0 : 526.18109 : 1"
       inkscape:vp_y="0 : 1000 : 0"
       inkscape:vp_z="744.09448 : 526.18109 : 1"
       inkscape:persp3d-origin="372.04724 : 350.78739 : 1"
       id="perspective2397" />
    <radialGradient
       inkscape:collect="always"
       xlink:href="#linearGradient5401"
       id="radialGradient5407"
       cx="291.42853"
       cy="294.28571"
       fx="291.42853"
       fy="294.28571"
       r="283.35712"
       gradientTransform="matrix(1,0,0,0.7479204,0,74.183419)"
       gradientUnits="userSpaceOnUse" />
    <radialGradient
       inkscape:collect="always"
       xlink:href="#linearGradient5401"
       id="radialGradient5411"
       cx="291.42853"
       cy="294.28571"
       fx="291.42853"
       fy="294.28571"
       r="284.35712"
       gradientTransform="matrix(1,0,0,0.7488069,0,73.922538)"
       gradientUnits="userSpaceOnUse" />
    <linearGradient
       inkscape:collect="always"
       xlink:href="#linearGradient3175"
       id="linearGradient3181"
       x1="617.14288"
       y1="474.28571"
       x2="617.14288"
       y2="128.57143"
       gradientUnits="userSpaceOnUse"
       gradientTransform="matrix(0.7945041,0,0,0.992675,20.431759,2.6262872)" />
    <radialGradient
       inkscape:collect="always"
       xlink:href="#linearGradient3175"
       id="radialGradient3205"
       cx="149.27217"
       cy="287.27859"
       fx="149.27217"
       fy="287.27859"
       r="321.57144"
       gradientTransform="matrix(1.6219458,0.7156819,-0.3698211,0.8381235,-904.4411,-527.60637)"
       gradientUnits="userSpaceOnUse" />
    <linearGradient
       inkscape:collect="always"
       xlink:href="#linearGradient3175"
       id="linearGradient3213"
       gradientUnits="userSpaceOnUse"
       gradientTransform="matrix(0.7945041,0,0,0.992675,26.249109,394.92654)"
       x1="617.14288"
       y1="474.28571"
       x2="617.14288"
       y2="128.57143" />
    <linearGradient
       inkscape:collect="always"
       xlink:href="#linearGradient3175"
       id="linearGradient3216"
       gradientUnits="userSpaceOnUse"
       gradientTransform="matrix(0.7945041,0,0,0.992675,20.431759,2.6262872)"
       x1="617.14288"
       y1="474.28571"
       x2="617.14288"
       y2="128.57143" />
    <linearGradient
       inkscape:collect="always"
       xlink:href="#linearGradient3175"
       id="linearGradient3223"
       gradientUnits="userSpaceOnUse"
       gradientTransform="matrix(0.7945041,0,0,0.992675,-379.83222,822.22106)"
       x1="617.14288"
       y1="474.28571"
       x2="617.14288"
       y2="128.57143" />
    <filter
       inkscape:collect="always"
       id="filter3472">
      <feGaussianBlur
         inkscape:collect="always"
         stdDeviation="2.1317197"
         id="feGaussianBlur3474" />
    </filter>
    <linearGradient
       inkscape:collect="always"
       xlink:href="#linearGradient3175"
       id="linearGradient3482"
       gradientUnits="userSpaceOnUse"
       gradientTransform="matrix(0.7945041,0,0,0.992675,636.92103,175.70509)"
       x1="617.14288"
       y1="474.28571"
       x2="617.14288"
       y2="128.57143" />
    <linearGradient
       inkscape:collect="always"
       xlink:href="#linearGradient3175"
       id="linearGradient3489"
       gradientUnits="userSpaceOnUse"
       gradientTransform="matrix(0.7945041,0,0,0.992675,634.71747,812.52647)"
       x1="617.14288"
       y1="474.28571"
       x2="617.14288"
       y2="128.57143" />
    <filter
       inkscape:collect="always"
       id="filter3571"
       x="-0.06140504"
       width="1.1228101"
       y="-0.10063486"
       height="1.2012697">
      <feGaussianBlur
         inkscape:collect="always"
         stdDeviation="14.61369"
         id="feGaussianBlur3573" />
    </filter>
    <radialGradient
       inkscape:collect="always"
       xlink:href="#linearGradient3196"
       id="radialGradient3192"
       cx="238.856"
       cy="455.65277"
       fx="238.856"
       fy="455.65277"
       r="253.10939"
       gradientTransform="matrix(1,0,0,0.677943,0,146.74614)"
       gradientUnits="userSpaceOnUse" />
    <filter
       inkscape:collect="always"
       id="filter3226">
      <feGaussianBlur
         inkscape:collect="always"
         stdDeviation="1.942927"
         id="feGaussianBlur3228" />
    </filter>
    <inkscape:perspective
       id="perspective2899"
       inkscape:persp3d-origin="0.5 : 0.33333333 : 1"
       inkscape:vp_z="1 : 0.5 : 1"
       inkscape:vp_y="0 : 1000 : 0"
       inkscape:vp_x="0 : 0.5 : 1"
       sodipodi:type="inkscape:persp3d" />
    <inkscape:perspective
       id="perspective2943"
       inkscape:persp3d-origin="0.5 : 0.33333333 : 1"
       inkscape:vp_z="1 : 0.5 : 1"
       inkscape:vp_y="0 : 1000 : 0"
       inkscape:vp_x="0 : 0.5 : 1"
       sodipodi:type="inkscape:persp3d" />
    <filter
       inkscape:collect="always"
       id="filter3765"
       x="-0.0246868"
       width="1.0493736"
       y="-0.11548427"
       height="1.2309685">
      <feGaussianBlur
         inkscape:collect="always"
         stdDeviation="10.272023"
         id="feGaussianBlur3767" />
    </filter>
  </defs>
  <sodipodi:namedview
     id="base"
     pagecolor="#ffffff"
     bordercolor="#666666"
     borderopacity="1.0"
     gridtolerance="10000"
     guidetolerance="10"
     objecttolerance="10"
     inkscape:pageopacity="0.0"
     inkscape:pageshadow="2"
     inkscape:zoom="0.16020388"
     inkscape:cx="2150.1946"
     inkscape:cy="694.42832"
     inkscape:document-units="px"
     inkscape:current-layer="layer1"
     showgrid="false"
     inkscape:window-width="1440"
     inkscape:window-height="852"
     inkscape:window-x="815"
     inkscape:window-y="560"
     showborder="true"
     borderlayer="false"
     inkscape:window-maximized="0" />
  <metadata
     id="metadata2394">
    <rdf:RDF>
      <cc:Work
         rdf:about="">
        <dc:format>image/svg+xml</dc:format>
        <dc:type
           rdf:resource="http://purl.org/dc/dcmitype/StillImage" />
        <dc:title></dc:title>
      </cc:Work>
    </rdf:RDF>
  </metadata>
  <g
     inkscape:label="Layer 1"
     inkscape:groupmode="layer"
     id="layer1"
     transform="translate(52.531917,-133.31049)">
    <path
       style="font-size:288px;font-style:normal;font-variant:normal;font-weight:normal;font-stretch:normal;fill:#000000;fill-opacity:1;stroke:none;filter:url(#filter3765);font-family:Gill Sans ExtraBoldDisplay;-inkscape-font-specification:Gill Sans ExtraBoldDisplay"
       d="m 1384.1204,378.50359 c -7.6744,0.41838 -17.5241,-2.51932 -22.7447,5.0425 -18.7232,16.67979 -37.7573,34.05585 -56.2866,50.30125 0.7283,-5.1237 -3.9637,-9.9668 -9.1563,-8.1875 -12.422,0.81095 -25.036,0.10805 -37.5312,0.34375 0,-15.88542 0,-31.77083 0,-47.65625 -6.9372,1.17847 -15.0192,-1.81405 -21.2445,1.79258 -19.6808,17.49285 -39.2632,35.51253 -59.0055,52.67617 -15.9383,-9.18053 -38.2339,-9.23191 -51.9375,3.65625 -4.8163,4.0247 -8.8606,8.90277 -12.4063,14.03125 0,-7.42708 0,-14.85417 0,-22.28125 -23.2083,0 -46.4166,0 -69.625,0 -0.062,37.6458 0.1251,75.54171 -0.094,113.03125 -4.9478,-0.12486 -12.7091,2.54232 -15.7187,-2.875 -4.5547,-24.55326 2.3308,-50.33456 -4.4688,-74.625 -6.0715,-23.61373 -29.98701,-37.83039 -53.24282,-39.90107 -33.20173,-4.43295 -65.92977,9.34574 -91.1322,30.11982 0,21 0,42 0,63 20.39026,-16.40979 43.25981,-35.0231 70.78125,-34.21875 4.15693,0.0226 7.88985,3.41098 7.09375,7.71875 1.30395,5.58073 -6.6281,5.53746 -9.87266,7.41673 -22.68536,8.78185 -49.48895,13.50554 -65.25234,33.67702 -3.50493,4.63399 -5.68115,10.15899 -6.5625,15.875 -0.22867,-23.72361 1.01691,-47.68073 -1.59375,-71.25 -3.0997,-21.00407 -15.98095,-42.26077 -37.375,-48.375 -23.42341,-7.4376 -49.85335,0.55258 -67.32765,17.08135 -2.08626,0.96997 -4.82156,6.22606 -6.2036,2.23115 -16.50346,-23.14006 -52.03907,-28.91646 -75.53777,-12.91115 -4.10188,2.56885 -7.87481,5.60356 -11.27473,9.03615 -1.17112,-4.88096 2.44956,-14.55373 -2,-16.15625 -22.54167,0 -45.08333,0 -67.625,0 0,54.21875 0,108.4375 0,162.65625 23.20833,0 46.41667,0 69.625,0 0.242,-31.71566 -0.47521,-63.53882 0.375,-95.1875 5.37219,-6.56108 15.4373,-14.47158 23.96875,-8.8125 8.07629,8.40504 4.70097,21.24999 5.6875,31.8125 0,24.0625 0,48.125 0,72.1875 23.20833,0 46.41667,0 69.625,0 0.0417,-32.37677 -0.0834,-64.82263 0.0625,-97.15625 6.13653,-6.30885 17.38583,-12.6287 25.3125,-5.96875 7.21958,9.31494 3.53192,22.00846 4.625,32.9375 0,23.39583 0,46.79167 0,70.1875 23.22917,0 46.45833,0 69.6875,0 -0.15218,-10.42621 -0.10192,-20.85441 -0.0625,-31.28125 2.35683,19.25772 21.65827,30.77104 39.58655,32.46357 19.42226,2.21637 39.39137,-1.52935 56.4447,-10.93232 16.36263,12.81218 38.39362,11.70618 58.09372,11.53125 4.8091,-13.97318 9.6109,-27.94895 14.375,-41.9375 1e-4,13.76042 1e-4,27.52083 0,41.28125 23.1876,0 46.3751,0 69.5626,0 1.4103,-27.74844 -3.5959,-56.73831 5.875,-83.375 3.3034,-8.31982 12.4399,-15.16538 21.5312,-11.875 8.3019,2.2062 14.6375,8.4202 20.3438,14.4375 5.6927,-12.29687 10.7859,-25.56676 16.9062,-37.25 3.3742,0.41834 7.77,-1.54995 10.5938,0.21875 0.3356,26.48872 -2.0245,53.42722 1.7812,79.78125 4.7932,21.27372 25.2527,35.75119 46.3949,37.52518 24.4697,3.75089 51.1038,-0.60162 70.7613,-16.05643 0,-18.91667 1e-4,-37.83333 0,-56.75 -11.8857,9.64417 -29.0703,18.43259 -44.0624,11.3125 -7.6854,-6.34632 -4.5385,-17.75529 -5.4688,-26.5625 0,-9.89583 0,-19.79167 0,-29.6875 19.4687,0 38.9375,0 58.4062,0 0.7827,26.94264 -2.031,54.21503 2.0938,80.9375 5.1817,20.76199 25.0517,34.89559 45.9375,36.75 24.5632,3.8975 51.2329,-0.47698 71.0937,-16 0.3511,-2.21717 -0.9187,-11.87235 1.0626,-5.875 9.3081,18.48843 32.1468,24.26464 51.4681,23.02804 14.557,-0.42488 28.8551,-4.51324 41.5943,-11.43429 16.3627,12.81218 38.3937,11.70618 58.0938,11.53125 5.772,-16.80487 11.574,-33.5999 17.25,-50.4375 -5.8497,-0.53688 -14.4081,3.27586 -18.5625,-2.4375 -3.4937,-16.96834 -0.7538,-34.61517 -1.5,-51.875 0.1683,-18.48385 -5.5602,-38.44614 -21.125,-49.5 -20.6552,-15.6408 -49.2846,-16.81549 -73.75,-10.96875 -19.3873,5.04058 -37.1085,15.1125 -52.5937,27.65625 -1e-4,21 -1e-4,42 0,63 20.3902,-16.40979 43.2598,-35.0231 70.7812,-34.21875 4.1493,0.0243 7.8943,3.40848 7.0938,7.71875 1.3039,5.58073 -6.6282,5.53746 -9.8727,7.41673 -22.6854,8.78185 -49.489,13.50554 -65.2523,33.67702 -1.973,2.63833 -3.5675,5.53984 -4.6876,8.625 1e-4,-7.55208 0,-15.10417 0,-22.65625 -11.8857,9.64417 -29.0703,18.43259 -44.0624,11.3125 -7.6854,-6.34632 -4.5385,-17.75529 -5.4688,-26.5625 0,-9.89583 0,-19.79167 0,-29.6875 15.4583,0 30.9167,0 46.375,0 0,-15.53125 0,-31.0625 0,-46.59375 -15.4583,0 -30.9167,0 -46.375,0 0,-15.94792 0,-31.89583 0,-47.84375 -0.7604,0.11458 -1.5208,0.22917 -2.2812,0.34375 z m -426.84382,164.6875 c -0.04,3.31211 0.23563,6.95504 0.5625,10.09375 -6.07804,3.65851 -17.08655,5.31704 -20.28125,-2.8125 -2.4719,-7.10929 3.35615,-14.03735 10.02947,-15.8192 4.09321,-1.44463 11.93047,-8.82491 9.68928,0.10045 0,2.8125 0,5.625 0,8.4375 z m 558.34382,0 c -0.7873,3.21895 1.5012,8.00327 -0.094,10.4375 -6.1697,3.68607 -17.5426,4.59384 -19.875,-4 -1.9312,-7.39581 4.6043,-13.54119 11.1692,-15.43192 4.7128,-2.44313 11.1442,-7.52463 8.7996,1.55692 -10e-5,2.47917 0,4.95833 0,7.4375 z"
       id="text2858-7-2"
       inkscape:export-filename="/home/gav/logo.png"
       inkscape:export-xdpi="17.197657"
       inkscape:export-ydpi="17.197657" />
    <path
       style="font-size:288px;font-style:normal;font-variant:normal;font-weight:normal;font-stretch:normal;fill:#000000;fill-opacity:1;stroke:none;font-family:Gill Sans ExtraBoldDisplay;-inkscape-font-specification:Gill Sans ExtraBoldDisplay"
       d="m 1384.9688,375.5 c -7.6744,0.41838 -17.5241,-2.51932 -22.7447,5.0425 -18.7232,16.67979 -37.7573,34.05585 -56.2866,50.30125 0.7283,-5.1237 -3.9637,-9.9668 -9.1563,-8.1875 -12.422,0.81095 -25.036,0.10805 -37.5312,0.34375 0,-15.88542 0,-31.77083 0,-47.65625 -6.9372,1.17847 -15.0192,-1.81405 -21.2445,1.79258 -19.6808,17.49285 -39.2632,35.51253 -59.0055,52.67617 -15.9383,-9.18053 -38.2339,-9.23191 -51.9375,3.65625 -4.8163,4.0247 -8.8606,8.90277 -12.4063,14.03125 0,-7.42708 0,-14.85417 0,-22.28125 -23.2083,0 -46.4166,0 -69.625,0 -0.062,37.6458 0.1251,75.54171 -0.094,113.03125 -4.9478,-0.12486 -12.7091,2.54232 -15.7187,-2.875 -4.5547,-24.55326 2.3308,-50.33456 -4.4688,-74.625 -6.0715,-23.61373 -29.98699,-37.83039 -53.2428,-39.90107 -33.20173,-4.43295 -65.92977,9.34574 -91.1322,30.11982 0,21 0,42 0,63 20.39026,-16.40979 43.25981,-35.0231 70.78125,-34.21875 4.15693,0.0226 7.88985,3.41098 7.09375,7.71875 1.30395,5.58073 -6.6281,5.53746 -9.87266,7.41673 -22.68536,8.78185 -49.48895,13.50554 -65.25234,33.67702 -3.50493,4.63399 -5.68115,10.15899 -6.5625,15.875 -0.22867,-23.72361 1.01691,-47.68073 -1.59375,-71.25 -3.0997,-21.00407 -15.98095,-42.26077 -37.375,-48.375 -23.42341,-7.4376 -49.85335,0.55258 -67.32765,17.08135 -2.08626,0.96997 -4.82156,6.22606 -6.2036,2.23115 -16.50346,-23.14006 -52.03907,-28.91646 -75.53777,-12.91115 -4.10188,2.56885 -7.87481,5.60356 -11.27473,9.03615 -1.17112,-4.88096 2.44956,-14.55373 -2,-16.15625 -22.54167,0 -45.08333,0 -67.625,0 0,54.21875 0,108.4375 0,162.65625 23.20833,0 46.41667,0 69.625,0 0.242,-31.71566 -0.47521,-63.53882 0.375,-95.1875 5.37219,-6.56108 15.4373,-14.47158 23.96875,-8.8125 8.07629,8.40504 4.70097,21.24999 5.6875,31.8125 0,24.0625 0,48.125 0,72.1875 23.20833,0 46.41667,0 69.625,0 0.0417,-32.37677 -0.0834,-64.82263 0.0625,-97.15625 6.13653,-6.30885 17.38583,-12.6287 25.3125,-5.96875 7.21958,9.31494 3.53192,22.00846 4.625,32.9375 0,23.39583 0,46.79167 0,70.1875 23.22917,0 46.45833,0 69.6875,0 -0.15218,-10.42621 -0.10192,-20.85441 -0.0625,-31.28125 2.35683,19.25772 21.65827,30.77104 39.58655,32.46357 19.42226,2.21637 39.39137,-1.52935 56.4447,-10.93232 16.36263,12.81218 38.3936,11.70618 58.0937,11.53125 4.8091,-13.97318 9.6109,-27.94895 14.375,-41.9375 10e-5,13.76042 10e-5,27.52083 0,41.28125 23.1876,0 46.3751,0 69.5626,0 1.4103,-27.74844 -3.5959,-56.73831 5.875,-83.375 3.3034,-8.31982 12.4399,-15.16538 21.5312,-11.875 8.3019,2.2062 14.6375,8.4202 20.3438,14.4375 5.6927,-12.29687 10.7859,-25.56676 16.9062,-37.25 3.3742,0.41834 7.77,-1.54995 10.5938,0.21875 0.3356,26.48872 -2.0245,53.42722 1.7812,79.78125 4.7932,21.27372 25.2527,35.75119 46.3949,37.52518 24.4697,3.75089 51.1038,-0.60162 70.7613,-16.05643 0,-18.91667 10e-5,-37.83333 0,-56.75 -11.8857,9.64417 -29.0703,18.43259 -44.0624,11.3125 -7.6854,-6.34632 -4.5385,-17.75529 -5.4688,-26.5625 0,-9.89583 0,-19.79167 0,-29.6875 19.4687,0 38.9375,0 58.4062,0 0.7827,26.94264 -2.031,54.21503 2.0938,80.9375 5.1817,20.76199 25.0517,34.89559 45.9375,36.75 24.5632,3.8975 51.2329,-0.47698 71.0937,-16 0.3511,-2.21717 -0.9187,-11.87235 1.0626,-5.875 9.3081,18.48843 32.1468,24.26464 51.4681,23.02804 14.557,-0.42488 28.8551,-4.51324 41.5943,-11.43429 16.3627,12.81218 38.3937,11.70618 58.0938,11.53125 5.772,-16.80487 11.574,-33.5999 17.25,-50.4375 -5.8497,-0.53688 -14.4081,3.27586 -18.5625,-2.4375 -3.4937,-16.96834 -0.7538,-34.61517 -1.5,-51.875 0.1683,-18.48385 -5.5602,-38.44614 -21.125,-49.5 -20.6552,-15.6408 -49.2846,-16.81549 -73.75,-10.96875 -19.3873,5.04058 -37.1085,15.1125 -52.5937,27.65625 -10e-5,21 -10e-5,42 0,63 20.3902,-16.40979 43.2598,-35.0231 70.7812,-34.21875 4.1493,0.0243 7.8943,3.40848 7.0938,7.71875 1.3039,5.58073 -6.6282,5.53746 -9.8727,7.41673 -22.6854,8.78185 -49.489,13.50554 -65.2523,33.67702 -1.973,2.63833 -3.5675,5.53984 -4.6876,8.625 10e-5,-7.55208 0,-15.10417 0,-22.65625 -11.8857,9.64417 -29.0703,18.43259 -44.0624,11.3125 -7.6854,-6.34632 -4.5385,-17.75529 -5.4688,-26.5625 0,-9.89583 0,-19.79167 0,-29.6875 15.4583,0 30.9167,0 46.375,0 0,-15.53125 0,-31.0625 0,-46.59375 -15.4583,0 -30.9167,0 -46.375,0 0,-15.94792 0,-31.89583 0,-47.84375 -0.7604,0.11458 -1.5208,0.22917 -2.2812,0.34375 z M 958.125,540.1875 c -0.04,3.31211 0.23563,6.95504 0.5625,10.09375 -6.07804,3.65851 -17.08655,5.31704 -20.28125,-2.8125 -2.4719,-7.10929 3.35615,-14.03735 10.02947,-15.8192 4.09321,-1.44463 11.93047,-8.82491 9.68928,0.10045 0,2.8125 0,5.625 0,8.4375 z m 558.3438,0 c -0.7873,3.21895 1.5012,8.00327 -0.094,10.4375 -6.1697,3.68607 -17.5426,4.59384 -19.875,-4 -1.9312,-7.39581 4.6043,-13.54119 11.1692,-15.43192 4.7128,-2.44313 11.1442,-7.52463 8.7996,1.55692 -10e-5,2.47917 0,4.95833 0,7.4375 z"
       id="text2858-7"
       inkscape:export-filename="/home/gav/logo.png"
       inkscape:export-xdpi="17.197657"
       inkscape:export-ydpi="17.197657" />
    <path
       style="font-size:288px;font-style:normal;font-variant:normal;font-weight:normal;font-stretch:normal;fill:#ffffff;fill-opacity:1;stroke:none;font-family:Gill Sans ExtraBoldDisplay;-inkscape-font-specification:Gill Sans ExtraBoldDisplay"
       d="m 1246.4375,383 c -7.2741,-0.35519 -10.1288,7.71213 -15.6643,10.98811 -16.5691,14.56425 -32.6667,29.86471 -49.5232,43.98064 -5.5537,1.25288 -9.5368,-4.53571 -14.9196,-5.18459 -14.5983,-5.32855 -31.6385,0.62596 -40.6742,12.90334 -7.8294,9.36856 -12.7112,20.6922 -18.75,31.21875 -0.5197,-14.67201 -0.3818,-29.35321 -0.375,-44.03125 -17.875,0 -35.7499,0 -53.625,0 0,48.88542 1e-4,97.77083 0,146.65625 17.7578,-0.31501 36.6928,0.62838 53.7188,-0.46875 0.7621,-27.01788 -3.5744,-55.95489 7.875,-81.25 5.4984,-10.84018 18.852,-17.30317 30.5,-12.96875 5.4058,1.56071 10.2728,4.68111 14.5312,8.21875 4.7618,-10.61902 9.4597,-21.19902 14.125,-31.8125 7.9375,0 15.8751,0 23.8126,0 0.9221,28.77162 -1.8604,57.88287 1.8124,86.4375 4.2543,18.4261 22.3966,30.2854 40.6462,31.54767 20.8574,2.80795 43.2552,-0.13613 60.7288,-12.36017 1e-4,-12.5625 0,-25.125 0,-37.6875 -12.6181,7.07083 -30.1074,10.67475 -42.5624,1.375 -9.5995,-9.46246 -6.0758,-24.38055 -6.9688,-36.4375 0,-10.95833 0,-21.91667 0,-32.875 24.7812,0 49.5625,0 74.3438,0 0.9221,28.77162 -1.8604,57.88287 1.8124,86.4375 4.2543,18.4261 22.3966,30.2854 40.6462,31.54767 20.8574,2.80795 43.2552,-0.13613 60.7288,-12.36017 1e-4,-12.5625 0,-25.125 0,-37.6875 -12.6181,7.07083 -30.1074,10.67475 -42.5624,1.375 -9.5995,-9.46246 -6.0758,-24.38055 -6.9688,-36.4375 0,-10.95833 0,-21.91667 0,-32.875 15.4583,0 30.9167,0 46.375,0 0,-10.19792 0,-20.39583 0,-30.59375 -15.4583,0 -30.9167,0 -46.375,0 -0.2315,-15.74764 0.4615,-32.41983 -0.3438,-47.59375 -5.0202,-0.72237 -10.6476,0.24639 -13.3069,4.91763 -22.422,20.07565 -44.7777,40.22565 -67.2555,60.23862 -2.5783,-5.63902 0.9379,-12.12946 -1.0938,-17.5625 -15.3333,0 -30.6667,0 -46,0 -0.2315,-15.74764 0.4615,-32.41983 -0.3438,-47.59375 -1.4479,5.6e-4 -2.8961,-0.15486 -4.3437,-0.0625 z m -290.34375,44.8125 c -24.9049,0.41032 -48.45439,11.69025 -67.84375,26.6875 0,14.1875 0,28.375 0,42.5625 19.11111,-14.39648 42.11528,-28.56842 67.03125,-25.03125 6.90492,1.55935 11.72373,8.39341 10.65625,15.46875 1.08732,4.29213 -0.0254,10.69283 -5.46875,10.90625 -22.6591,10.19638 -49.62505,13.23918 -68.1875,31.03125 -9.98548,10.34548 -11.6527,28.36574 -0.96875,38.78125 13.48954,13.23429 34.48688,13.37384 52.03125,10.5 10.62848,-1.99977 20.83693,-6.28851 30.1875,-11.8125 13.08512,13.55214 33.47525,13.62233 51.24995,13.28125 3.458,-11.07561 8.7113,-23.43361 11.0626,-33.71875 -8.0094,0.17514 -16.0422,-5.8806 -15.4376,-14.4375 -3.2188,-23.7785 3.016,-48.77399 -4.25,-71.8125 -6.5608,-20.37583 -28.51195,-30.88553 -48.55749,-32.037 -3.82086,-0.37079 -7.66837,-0.45012 -11.50496,-0.36925 z m 558.34375,0 c -24.9049,0.41032 -48.4544,11.69025 -67.8437,26.6875 0,14.1875 0,28.375 0,42.5625 19.1111,-14.39648 42.1152,-28.56842 67.0312,-25.03125 6.9049,1.55935 11.7237,8.39341 10.6562,15.46875 1.0874,4.29213 -0.025,10.69283 -5.4687,10.90625 -22.6591,10.19638 -49.625,13.23918 -68.1875,31.03125 -9.9855,10.34548 -11.6527,28.36574 -0.9688,38.78125 13.4896,13.23429 34.4869,13.37384 52.0313,10.5 10.6285,-1.99977 20.8369,-6.28851 30.1875,-11.8125 13.0851,13.55214 33.4753,13.62233 51.25,13.28125 3.4579,-11.07561 8.7113,-23.43361 11.0625,-33.71875 -8.0094,0.17514 -16.0421,-5.8806 -15.4375,-14.4375 -3.2189,-23.7785 3.016,-48.77399 -4.25,-71.8125 -6.633,-20.59178 -28.9177,-31.04526 -49.1562,-32.09375 -3.6244,-0.31873 -7.2699,-0.39123 -10.9063,-0.3125 z m -697.5,1.90625 c -17.09238,0.34424 -32.67467,9.11181 -44.88952,20.6446 -3.45354,1.46255 -8.5744,10.93532 -10.39173,5.57415 -11.00386,-25.9093 -47.71514,-34.15004 -70.05879,-17.51997 -9.32798,6.1271 -16.27042,14.86472 -22.47246,24.01997 0,-10.22917 0,-20.45833 0,-30.6875 -17.875,0 -35.75,0 -53.625,0 0,48.88542 0,97.77083 0,146.65625 17.875,0 35.75,0 53.625,0 0,-29.875 0,-59.75 0,-89.625 7.34836,-9.45905 18.98188,-19.40075 31.875,-15.46875 11.09464,3.18562 13.98477,16.34401 14.00048,26.53075 0.31551,26.18447 0.084,52.37585 0.15577,78.563 17.875,0 35.75,0 53.625,0 0,-30.79167 0,-61.58333 0,-92.375 9.41743,-12.62049 33.0832,-20.82069 42.4375,-3.84375 5.825,12.72521 2.6135,27.3733 3.5625,40.90625 0,18.4375 0,36.875 0,55.3125 17.875,0 35.75,0 53.625,0 -0.57905,-34.34942 1.43753,-68.90689 -1.28125,-103.125 -2.50033,-18.68895 -13.37172,-38.23377 -32.78125,-43.40625 -5.63242,-1.66568 -11.52824,-2.35726 -17.40625,-2.15625 z M 966,516.75 c 0.63762,12.39186 -1.53637,25.10444 1.78125,37.1875 -9.31915,6.11352 -23.52216,11.07524 -32.75,2.3125 -10.10078,-9.0053 -4.64355,-27.39936 7.79141,-31.12153 7.66508,-3.99057 15.46197,-7.70267 23.17734,-11.59722 0,1.07292 0,2.14583 0,3.21875 z m 558.3438,0 c 0.6376,12.39186 -1.5364,25.10444 1.7812,37.1875 -9.2629,6.11937 -23.5209,11.06449 -32.75,2.3125 -10.1008,-9.0053 -4.6435,-27.39936 7.7914,-31.12153 7.6651,-3.99057 15.462,-7.70267 23.1774,-11.59722 -1e-4,1.07292 0,2.14583 0,3.21875 z"
       id="text2858"
       inkscape:export-filename="/home/gav/logo.png"
       inkscape:export-xdpi="17.197657"
       inkscape:export-ydpi="17.197657" />
    <path
       style="opacity:0.98999999;fill:none;stroke:#000000;stroke-width:3;stroke-linecap:butt;stroke-linejoin:miter;stroke-miterlimit:4;stroke-opacity:1;stroke-dasharray:none;filter:url(#filter3472)"
       d="m 666.43055,986.50497 0,251.20653 84.59946,0 0,-125.033 c 34.44161,25.4499 76.95524,40.5373 122.80398,40.5372 44.08369,0 85.05613,-13.9852 118.76062,-37.6861 l 0,122.1819 84.59949,0 107.2008,-107.2526 -59.1989,-59.2507 -48.0019,48.0019 0,-132.70513 -84.59949,0 c -16.75651,49.50673 -63.31607,84.80693 -118.76062,84.80693 -55.44711,0 -102.06092,-35.2995 -118.81246,-84.80693 l -88.59098,0 z"
       id="path3226" />
    <path
       style="fill:url(#linearGradient3489);fill-opacity:1;fill-rule:evenodd;stroke:none"
       d="m 638.81696,940.15018 c -11.08,0 -20,8.92 -20,20 l 0,303.18752 c 0,11.08 8.92,20 20,20 l 466.21874,0 c 11.08,0 20,-8.92 20,-20 l 0,-73.25 -47.5937,47.625 -84.59379,0 0,-122.1875 c -33.70449,23.7009 -74.69754,37.6875 -118.78125,37.6875 -45.84874,0 -88.33964,-15.0814 -122.78125,-40.5313 l 0,125.0313 -84.59375,0 0,-251.21877 88.5625,0 c 16.75154,49.50737 63.3654,84.81257 118.8125,84.81247 55.44456,0 102.02473,-35.3058 118.78125,-84.81247 l 84.59379,0 0,132.71877 47.5937,-47.5938 0,-111.46872 c 0,-11.08 -8.92,-20 -20,-20 l -466.21874,0 z"
       id="rect2395" />
    <text
       xml:space="preserve"
       style="font-size:40px;font-style:normal;font-weight:normal;fill:#000000;fill-opacity:0.62999998;stroke:none;font-family:Bitstream Vera Sans"
       x="786.73486"
       y="1328.4572"
       id="text3250"><tspan
         sodipodi:role="line"
         id="tspan3252"
         x="786.73486"
         y="1328.4572">(martta)</tspan><tspan
         sodipodi:role="line"
         x="786.73486"
         y="1378.4572"
         id="tspan3254" /></text>
    <path
       style="fill:none;stroke:#000000;stroke-width:5.32847404;stroke-miterlimit:4;stroke-opacity:1;stroke-dasharray:none"
       d="m 640.58885,939.51334 c -11.08,0 -20,8.92 -20,20 l 0,303.18746 c 0,11.08 8.92001,20 20,20 l 466.21875,0 c 11.08,0 20,-8.92 20,-20 l 0,-73.2187 59.625,-59.6563 -59.5976,-58.808 -0.027,-0.036 0,-111.46876 c 0,-11.08 -8.92,-20 -20,-20 l -466.21875,0 z"
       id="rect3209"
       sodipodi:nodetypes="ccccccccccccc" />
    <rect
       style="opacity:1;fill:url(#linearGradient3223);fill-opacity:1;fill-rule:evenodd;stroke:#000000;stroke-width:5.32847404;stroke-miterlimit:4;stroke-dasharray:none;stroke-opacity:1"
       id="rect3219"
       width="506.21249"
       height="343.18207"
       x="-395.72229"
       y="949.85071"
       rx="20"
       ry="20" />
    <path
       style="opacity:1;fill:#000000;fill-opacity:1;fill-rule:evenodd;stroke:none;stroke-width:44.93363571;stroke-linecap:butt;stroke-linejoin:miter;stroke-miterlimit:4;stroke-dasharray:none;stroke-opacity:1"
       d="M -347.87223,996.20296 L -347.87223,1247.4094 L -263.27277,1247.4094 L -263.27277,1122.3764 C -228.83116,1147.8263 -186.31753,1162.9137 -140.46879,1162.9136 C -96.385094,1162.9136 -55.412654,1148.9284 -21.708164,1125.2275 L -21.708164,1247.4094 L 62.891286,1247.4094 L 170.09207,1140.1568 L 110.89319,1080.9061 L 62.891286,1128.908 L 62.891286,996.20296 L -21.708164,996.20296 C -38.464674,1045.7096 -85.024234,1081.0098 -140.46879,1081.0098 C -195.9159,1081.0098 -242.52971,1045.7103 -259.28125,996.20296 L -347.87223,996.20296 z"
       id="path3221" />
    <g
       id="g3493"
       transform="translate(-635.63107,-13.555492)"
       style="fill:#000000;fill-opacity:1;filter:url(#filter3571)"
       inkscape:export-filename="/home/gav/logo.png"
       inkscape:export-xdpi="17.197657"
       inkscape:export-ydpi="17.197657">
      <path
         id="path3495"
         d="M 668.63411,349.68359 L 668.63411,600.89009 L 753.23357,600.89009 L 753.23357,475.85709 C 787.67518,501.30699 830.18881,516.39439 876.03755,516.39429 C 920.12124,516.39429 961.09368,502.40909 994.79817,478.70819 L 994.79817,600.89009 L 1079.3976,600.89009 L 1186.5984,493.63749 L 1127.3995,434.38679 L 1079.3976,482.38869 L 1079.3976,349.68359 L 994.79817,349.68359 C 978.04166,399.19029 931.4821,434.49049 876.03755,434.49049 C 820.59044,434.49049 773.97663,399.19099 757.22509,349.68359 L 668.63411,349.68359 z"
         style="opacity:0.98999999;fill:#000000;fill-opacity:1;fill-rule:evenodd;stroke:#000000;stroke-width:3;stroke-linecap:butt;stroke-linejoin:miter;stroke-miterlimit:4;stroke-dasharray:none;stroke-opacity:1;filter:url(#filter3472)" />
      <path
         id="path3497"
         d="M 641.02052,303.3288 C 629.94052,303.3288 621.02052,312.2488 621.02052,323.3288 L 621.02052,626.5163 C 621.02052,637.5963 629.94052,646.5163 641.02052,646.5163 L 1107.2393,646.5163 C 1118.3193,646.5163 1127.2393,637.5963 1127.2393,626.5163 L 1127.2393,553.2663 L 1079.6455,600.8913 L 995.05177,600.8913 L 995.05177,478.7038 C 961.34728,502.40472 920.35423,516.39131 876.27052,516.3913 C 830.42178,516.39132 787.93088,501.30994 753.48927,475.86005 L 753.48927,600.8913 L 668.89552,600.8913 L 668.89552,349.67255 L 757.45802,349.67255 C 774.20956,399.1799 820.82342,434.48509 876.27052,434.48505 C 931.71508,434.48505 978.29525,399.17924 995.05177,349.67255 L 1079.6455,349.67255 L 1079.6455,482.3913 L 1127.2393,434.79755 L 1127.2393,323.3288 C 1127.2393,312.2488 1118.3193,303.3288 1107.2393,303.3288 L 641.02052,303.3288 z"
         style="opacity:1;fill:#000000;fill-opacity:1;fill-rule:evenodd;stroke:none;stroke-width:5.32847404;stroke-miterlimit:4;stroke-dasharray:none;stroke-opacity:1" />
      <path
         sodipodi:nodetypes="ccccccccccccc"
         id="path3499"
         d="M 642.79241,302.69196 C 631.71241,302.69196 622.79241,311.61196 622.79241,322.69196 L 622.79241,625.87946 C 622.79241,636.95946 631.71241,645.87946 642.79241,645.87946 L 1109.0112,645.87946 C 1120.0912,645.87946 1129.0112,636.95946 1129.0112,625.87946 L 1129.0112,552.66071 L 1188.6362,493.00446 L 1129.0386,434.1964 L 1129.0112,434.16071 L 1129.0112,322.69196 C 1129.0112,311.61196 1120.0912,302.69196 1109.0112,302.69196 L 642.79241,302.69196 z"
         style="opacity:1;fill:#000000;fill-opacity:1;fill-rule:evenodd;stroke:#000000;stroke-width:5.32847404;stroke-miterlimit:4;stroke-dasharray:none;stroke-opacity:1" />
    </g>
    <path
       sodipodi:nodetypes="ccccccccccccc"
       id="path3577"
       d="M 10.018475,283.42218 C -1.0615254,283.42218 -9.9815253,292.34218 -9.9815253,303.42218 L -9.9815253,606.60968 C -9.9815253,617.68968 -1.0615254,626.60968 10.018475,626.60968 L 476.23725,626.60968 C 487.31725,626.60968 496.23725,617.68968 496.23725,606.60968 L 496.23725,533.39093 L 555.86225,473.73468 L 496.26465,414.92662 L 496.23725,414.89093 L 496.23725,303.42218 C 496.23725,292.34218 487.31725,283.42218 476.23725,283.42218 L 10.018475,283.42218 z"
       style="opacity:1;fill:#ffffff;fill-opacity:1;fill-rule:evenodd;stroke:none;stroke-width:5.32847404;stroke-miterlimit:4;stroke-dasharray:none;stroke-opacity:1"
       inkscape:export-filename="/home/gav/logo.png"
       inkscape:export-xdpi="17.197657"
       inkscape:export-ydpi="17.197657" />
    <path
       style="opacity:0.98999999000000005;fill:none;fill-opacity:1;fill-rule:evenodd;stroke:#000000;stroke-width:4;stroke-linecap:butt;stroke-linejoin:miter;stroke-miterlimit:4;stroke-dasharray:none;stroke-opacity:1;filter:url(#filter3226)"
       d="M 33.3602,330.4138 L 33.3602,581.6203 L 117.95966,581.6203 L 117.95966,456.5873 C 152.40127,482.0372 194.9149,497.1246 240.76364,497.1245 C 284.84733,497.1245 325.81977,483.1393 359.52426,459.4384 L 359.52426,581.6203 L 444.12369,581.6203 L 551.32449,474.3677 L 492.12559,415.117 L 444.12369,463.1189 L 444.12369,330.4138 L 359.52426,330.4138 C 342.76775,379.9205 296.20819,415.2207 240.76364,415.2207 C 185.31653,415.2207 138.70272,379.9212 121.95118,330.4138 L 33.3602,330.4138 z"
       id="path3476"
       inkscape:export-filename="/home/gav/logo.png"
       inkscape:export-xdpi="17.197657"
       inkscape:export-ydpi="17.197657" />
    <path
       style="fill:url(#radialGradient3192);fill-opacity:1;fill-rule:evenodd;stroke:none;stroke-width:5.32847403999999969;stroke-miterlimit:4;stroke-dasharray:none;stroke-opacity:1"
       d="M 5.74661,284.05901 C -5.33339,284.05901 -14.25339,292.97901 -14.25339,304.05901 L -14.25339,607.24651 C -14.25339,618.32651 -5.33339,627.24651 5.74661,627.24651 L 471.96539,627.24651 C 483.04539,627.24651 491.96539,618.32651 491.96539,607.24651 L 491.96539,533.99651 L 444.37159,581.62151 L 359.77786,581.62151 L 359.77786,459.43401 C 326.07337,483.13493 285.08032,497.12152 240.99661,497.12151 C 195.14787,497.12153 152.65697,482.04015 118.21536,456.59026 L 118.21536,581.62151 L 33.62161,581.62151 L 33.62161,330.40276 L 122.18411,330.40276 C 138.93565,379.91011 185.54951,415.2153 240.99661,415.21526 C 296.44117,415.21526 343.02134,379.90945 359.77786,330.40276 L 444.37159,330.40276 L 444.37159,463.12151 L 491.96539,415.52776 L 491.96539,304.05901 C 491.96539,292.97901 483.04539,284.05901 471.96539,284.05901 L 5.74661,284.05901 z"
       id="path3478"
       inkscape:export-filename="/home/gav/logo.png"
       inkscape:export-xdpi="17.197657"
       inkscape:export-ydpi="17.197657" />
    <path
       style="fill:none;fill-opacity:1;fill-rule:evenodd;stroke:#000000;stroke-width:7;stroke-miterlimit:4;stroke-dasharray:none;stroke-opacity:1"
       d="M 7.5185,283.42217 C -3.5615,283.42217 -12.4815,292.34217 -12.4815,303.42217 L -12.4815,606.60967 C -12.4815,617.68967 -3.5615,626.60967 7.5185,626.60967 L 473.73729,626.60967 C 484.81729,626.60967 493.73729,617.68967 493.73729,606.60967 L 493.73729,533.39092 L 553.36229,473.73467 L 493.76469,414.92661 L 493.73729,414.89092 L 493.73729,303.42217 C 493.73729,292.34217 484.81729,283.42217 473.73729,283.42217 L 7.5185,283.42217 z"
       id="path3480"
       sodipodi:nodetypes="ccccccccccccc"
       inkscape:export-filename="/home/gav/logo.png"
       inkscape:export-xdpi="17.197657"
       inkscape:export-ydpi="17.197657" />
    <flowRoot
       xml:space="preserve"
       id="flowRoot2862"
       style="fill:black;stroke:none;stroke-opacity:1;stroke-width:1px;stroke-linejoin:miter;stroke-linecap:butt;fill-opacity:1;font-family:FreeSans;font-style:normal;font-weight:normal;font-size:12;-inkscape-font-specification:FreeSans;font-stretch:normal;font-variant:normal"><flowRegion
         id="flowRegion2864"><rect
           id="rect2866"
           width="165.51724"
           height="75.034485"
           x="1032.8276"
           y="375.17242" /></flowRegion><flowPara
         id="flowPara2868"></flowPara></flowRoot>  </g>
</svg>
