<?xml version="1.0" encoding="UTF-8" standalone="no"?>
<!-- Created with Inkscape (http://www.inkscape.org/) -->
<svg
   xmlns:dc="http://purl.org/dc/elements/1.1/"
   xmlns:cc="http://creativecommons.org/ns#"
   xmlns:rdf="http://www.w3.org/1999/02/22-rdf-syntax-ns#"
   xmlns:svg="http://www.w3.org/2000/svg"
   xmlns="http://www.w3.org/2000/svg"
   xmlns:xlink="http://www.w3.org/1999/xlink"
   xmlns:sodipodi="http://sodipodi.sourceforge.net/DTD/sodipodi-0.dtd"
   xmlns:inkscape="http://www.inkscape.org/namespaces/inkscape"
   width="580"
   height="580"
   id="svg2"
   sodipodi:version="0.32"
   inkscape:version="0.46"
   sodipodi:docname="Martta Logo2.svg"
   inkscape:output_extension="org.inkscape.output.svg.inkscape"
   version="1.0"
   style="enable-background:new">
  <defs
     id="defs4">
    <linearGradient
       id="linearGradient3195">
      <stop
         style="stop-color:#0049ff;stop-opacity:1;"
         offset="0"
         id="stop3197" />
      <stop
         style="stop-color:#ffffff;stop-opacity:1;"
         offset="1"
         id="stop3199" />
    </linearGradient>
    <inkscape:perspective
       sodipodi:type="inkscape:persp3d"
       inkscape:vp_x="0 : 526.18109 : 1"
       inkscape:vp_y="0 : 1000 : 0"
       inkscape:vp_z="744.09448 : 526.18109 : 1"
       inkscape:persp3d-origin="372.04724 : 350.78739 : 1"
       id="perspective10" />
    <linearGradient
       inkscape:collect="always"
       xlink:href="#linearGradient3195"
       id="linearGradient3205"
       x1="391.59375"
       y1="167.31876"
       x2="391.59375"
       y2="781.97156"
       gradientUnits="userSpaceOnUse"
       gradientTransform="translate(98.994949,19.79899)" />
    <filter
       inkscape:collect="always"
       id="filter3651"
       x="-0.16449171"
       width="1.3289834"
       y="-0.11413003"
       height="1.2282602">
      <feGaussianBlur
         inkscape:collect="always"
         stdDeviation="25.336864"
         id="feGaussianBlur3653" />
    </filter>
    <linearGradient
       inkscape:collect="always"
       xlink:href="#linearGradient3195"
       id="linearGradient3196"
       x1="295.57062"
       y1="-5.484416"
       x2="295.57062"
       y2="848.70062"
       gradientUnits="userSpaceOnUse" />
    <linearGradient
       inkscape:collect="always"
       xlink:href="#linearGradient3195"
       id="linearGradient3207"
       x1="329.79755"
       y1="175.53496"
       x2="-69.010681"
       y2="325.44159"
       gradientUnits="userSpaceOnUse"
       gradientTransform="translate(79.19596,62.225397)" />
    <filter
       inkscape:collect="always"
       id="filter3285">
      <feGaussianBlur
         inkscape:collect="always"
         stdDeviation="10.091798"
         id="feGaussianBlur3287" />
    </filter>
  </defs>
  <sodipodi:namedview
     id="base"
     pagecolor="#4737ff"
     bordercolor="#666666"
     borderopacity="1.0"
     gridtolerance="10000"
     guidetolerance="10"
     objecttolerance="10"
     inkscape:pageopacity="0"
     inkscape:pageshadow="2"
     inkscape:zoom="0.35355339"
     inkscape:cx="330.92511"
     inkscape:cy="231.6731"
     inkscape:document-units="px"
     inkscape:current-layer="layer2"
     showgrid="false"
     inkscape:window-width="1154"
     inkscape:window-height="738"
     inkscape:window-x="147"
     inkscape:window-y="52" />
  <metadata
     id="metadata7">
    <rdf:RDF>
      <cc:Work
         rdf:about="">
        <dc:format>image/svg+xml</dc:format>
        <dc:type
           rdf:resource="http://purl.org/dc/dcmitype/StillImage" />
      </cc:Work>
    </rdf:RDF>
  </metadata>
  <g
     inkscape:groupmode="layer"
     id="layer5"
     style="display:inline">
    <rect
       style="opacity:0.43999999;fill:url(#linearGradient3196);fill-opacity:1;stroke:none;stroke-width:3.4000001;stroke-linecap:round;stroke-linejoin:round;stroke-miterlimit:4;stroke-dasharray:none;stroke-opacity:1"
       id="rect3178"
       width="602.45496"
       height="593.96973"
       x="-5.6568542"
       y="-5.484416"
       ry="0" />
  </g>
  <g
     inkscape:groupmode="layer"
     id="layer2"
     style="opacity:1;display:inline"
     transform="translate(-202.9125,-161.7122)">
    <path
       style="opacity:0.25870647;fill:none;fill-opacity:1;stroke:#000000;stroke-width:13.80000000000000071;stroke-linecap:butt;stroke-linejoin:bevel;stroke-miterlimit:4;stroke-dasharray:none;stroke-opacity:1;filter:url(#filter3285)"
       d="M 493.24495,188.41119 C 422.64505,188.41119 358.50497,216.21779 311.1512,261.44244 L 492.5887,391.03619 L 673.18245,261.25494 C 625.84735,216.13844 563.7495,188.41119 493.24495,188.41119 z M 308.80745,359.62994 L 308.80745,640.62995 C 356.37767,687.19205 421.47219,715.91115 493.24495,715.91115 C 562.41801,715.91115 625.40592,683.24575 672.4637,639.62995 L 672.4637,359.09869 L 494.1512,489.81744 L 493.61995,489.09869 L 492.4012,490.75494 L 308.80745,359.62994 z"
       id="path3212"
       sodipodi:nodetypes="cccccccscccccc" />
  </g>
  <g
     inkscape:label="Layer 1"
     inkscape:groupmode="layer"
     id="layer1"
     style="display:none"
     transform="translate(-202.9125,-161.7122)">
    <path
       style="opacity:1;fill:url(#linearGradient3205);fill-opacity:1;stroke:none;stroke-width:2.29999995;stroke-linecap:butt;stroke-linejoin:bevel;stroke-miterlimit:4;stroke-dasharray:none;stroke-opacity:1"
       d="M 492.8387,188.26774 C 422.2388,188.26774 358.09872,216.07434 310.74495,261.29899 L 492.18245,390.89274 L 672.7762,261.11149 C 625.4411,215.99499 563.34325,188.26774 492.8387,188.26774 z M 308.4012,359.48649 L 308.4012,640.48649 C 355.97142,687.0486 421.06594,715.76775 492.8387,715.76774 C 562.01176,715.76774 624.99967,683.10233 672.05745,639.48649 L 672.05745,358.95524 L 493.74495,489.67399 L 493.2137,488.95524 L 491.99495,490.61149 L 308.4012,359.48649 z"
       id="path2404"
       sodipodi:nodetypes="cccccccscccccc" />
  </g>
  <g
     inkscape:groupmode="layer"
     id="layer4"
     style="display:inline">
    <path
       style="opacity:1;fill:#ffffff;fill-opacity:0.52486189;stroke:#575757;stroke-width:3.4000001;stroke-linecap:round;stroke-linejoin:round;stroke-miterlimit:4;stroke-dasharray:none;stroke-opacity:1;display:inline;enable-background:new"
       d="M 290.74957,24.922006 C 220.14967,24.922006 156.00959,52.728606 108.65582,97.953256 L 290.09332,227.54701 L 470.68707,97.765756 C 423.35197,52.649256 361.25412,24.922006 290.74957,24.922006 z M 106.31207,196.14076 L 106.31207,477.14076 C 153.88229,523.70287 218.97681,552.42202 290.74957,552.42201 C 359.92263,552.42201 422.91054,519.7566 469.96832,476.14076 L 469.96832,195.60951 L 291.65582,326.32826 L 291.12457,325.60951 L 289.90582,327.26576 L 106.31207,196.14076 z"
       id="path2403"
       sodipodi:nodetypes="cccccccscccccc" />
    <g
       inkscape:groupmode="layer"
       id="layer6"
       style="display:inline" />
  </g>
  <g
     inkscape:groupmode="layer"
     id="layer3"
     style="opacity:1;display:none"
     transform="translate(-202.9125,-161.7122)">
    <path
       style="opacity:1;fill:none;fill-opacity:1;stroke:#000000;stroke-width:5.30000019;stroke-linecap:butt;stroke-linejoin:bevel;stroke-miterlimit:4;stroke-dasharray:none;stroke-opacity:1;filter:url(#filter3651)"
       d="M 493.24495,188.41119 C 422.64505,188.41119 358.50497,216.21779 311.1512,261.44244 L 492.5887,391.03619 L 673.18245,261.25494 C 625.84735,216.13844 563.7495,188.41119 493.24495,188.41119 z M 308.80745,359.62994 L 308.80745,640.62995 C 356.37767,687.19205 421.47219,715.91115 493.24495,715.91115 C 562.41801,715.91115 625.40592,683.24575 672.4637,639.62995 L 672.4637,359.09869 L 494.1512,489.81744 L 493.61995,489.09869 L 492.4012,490.75494 L 308.80745,359.62994 z"
       id="path3441"
       sodipodi:nodetypes="cccccccscccccc" />
  </g>
</svg>
