<?xml version="1.0" encoding="UTF-8" standalone="no"?>
<!-- Created with Inkscape (http://www.inkscape.org/) -->

<svg
   xmlns:dc="http://purl.org/dc/elements/1.1/"
   xmlns:cc="http://creativecommons.org/ns#"
   xmlns:rdf="http://www.w3.org/1999/02/22-rdf-syntax-ns#"
   xmlns:svg="http://www.w3.org/2000/svg"
   xmlns="http://www.w3.org/2000/svg"
   xmlns:xlink="http://www.w3.org/1999/xlink"
   xmlns:sodipodi="http://sodipodi.sourceforge.net/DTD/sodipodi-0.dtd"
   xmlns:inkscape="http://www.inkscape.org/namespaces/inkscape"
   width="11.17"
   height="11.17"
   id="svg2"
   sodipodi:version="0.32"
   inkscape:version="0.47pre0 r21549"
   sodipodi:docname="arrow.svg"
   inkscape:output_extension="org.inkscape.output.svg.inkscape"
   version="1.0">
  <sodipodi:namedview
     id="base"
     pagecolor="#ffffff"
     bordercolor="#666666"
     borderopacity="1.0"
     gridtolerance="10000"
     guidetolerance="10"
     objecttolerance="10"
     inkscape:pageopacity="0.0"
     inkscape:pageshadow="2"
     inkscape:zoom="22.627417"
     inkscape:cx="6.5918553"
     inkscape:cy="4.9532038"
     inkscape:document-units="px"
     inkscape:current-layer="layer1"
     inkscape:window-width="1429"
     inkscape:window-height="735"
     inkscape:window-x="8"
     inkscape:window-y="10"
     showgrid="false"
     inkscape:window-maximized="0"
     inkscape:snap-object-midpoints="true"
     inkscape:snap-center="true"
     inkscape:snap-page="true" />
  <defs
     id="defs4">
    <linearGradient
       inkscape:collect="always"
       id="linearGradient5971">
      <stop
         style="stop-color:#000000;stop-opacity:1;"
         offset="0"
         id="stop5973" />
      <stop
         style="stop-color:#000000;stop-opacity:0;"
         offset="1"
         id="stop5975" />
    </linearGradient>
    <inkscape:perspective
       sodipodi:type="inkscape:persp3d"
       inkscape:vp_x="0 : 5.5848475 : 1"
       inkscape:vp_y="0 : 1000 : 0"
       inkscape:vp_z="17.014498 : 5.5848475 : 1"
       inkscape:persp3d-origin="8.5072489 : 3.7232316 : 1"
       id="perspective8" />
    <radialGradient
       inkscape:collect="always"
       xlink:href="#linearGradient5971"
       id="radialGradient5979"
       cx="8.5"
       cy="5.578125"
       fx="8.5"
       fy="5.578125"
       r="9.1884527"
       gradientTransform="matrix(1,0,0,0.6820058,0,1.7738116)"
       gradientUnits="userSpaceOnUse" />
    <inkscape:perspective
       id="perspective2881"
       inkscape:persp3d-origin="0.5 : 0.33333333 : 1"
       inkscape:vp_z="1 : 0.5 : 1"
       inkscape:vp_y="0 : 1000 : 0"
       inkscape:vp_x="0 : 0.5 : 1"
       sodipodi:type="inkscape:persp3d" />
  </defs>
  <metadata
     id="metadata7">
    <rdf:RDF>
      <cc:Work
         rdf:about="">
        <dc:format>image/svg+xml</dc:format>
        <dc:type
           rdf:resource="http://purl.org/dc/dcmitype/StillImage" />
        <dc:title></dc:title>
      </cc:Work>
    </rdf:RDF>
  </metadata>
  <g
     inkscape:label="Layer 1"
     id="layer1"
     inkscape:groupmode="layer"
     transform="translate(-85.911988,-60.010216)">
    <path
       style="fill:#000000;fill-opacity:1"
       d="M 5.59375 0.53125 C 5.474278 0.53126742 4.8523652 2.4419612 4.46875 3.59375 C 4.7231761 3.5087608 4.9893108 3.4206047 5.21875 3.375 L 5.40625 5.4375 C 5.4613628 5.4280796 5.5047011 5.40625 5.5625 5.40625 C 5.6055663 5.40625 5.6458693 5.4322142 5.6875 5.4375 L 5.875 3.40625 C 6.1172366 3.4563695 6.3954646 3.5254884 6.6875 3.625 C 6.3040045 2.4767869 5.7140587 0.53123245 5.59375 0.53125 z M 0.65625 4.5 C 0.27311858 4.5123295 0.012897776 4.554035 0 4.59375 C -0.036637252 4.7065638 1.582781 5.8404455 2.5625 6.5625 C 2.5607084 6.2825363 2.5964875 6.0124106 2.625 5.78125 L 4.59375 6.21875 C 4.6097904 6.1324699 4.6508216 6.0457055 4.6875 5.96875 L 2.8125 5.1875 C 2.9305675 4.9779384 3.0750396 4.7365996 3.25 4.5 C 2.4609964 4.5057505 1.3642102 4.4772172 0.65625 4.5 z M 7.90625 4.5 C 8.0763744 4.7305809 8.2013226 4.982531 8.3125 5.1875 L 6.46875 5.96875 C 6.5050182 6.0448447 6.515144 6.1335213 6.53125 6.21875 L 8.5 5.78125 C 8.5257153 6.0121555 8.5647722 6.2843551 8.5625 6.5625 C 9.5395234 5.8412852 11.193154 4.7072716 11.15625 4.59375 C 11.119486 4.4806594 9.1222463 4.5085079 7.90625 4.5 z M 4.90625 7.09375 L 3.53125 8.625 C 3.3794164 8.4554461 3.2230689 8.2548626 3.0625 8.03125 C 2.6945384 9.1915536 2.0290788 11.086581 2.125 11.15625 C 2.2209708 11.225955 3.8230356 10.021141 4.8125 9.3125 C 4.5204626 9.2214384 4.2499081 9.1077298 4.03125 9 L 5.125 7.25 C 5.044772 7.207293 4.971581 7.1558183 4.90625 7.09375 z M 6.21875 7.125 C 6.1507527 7.184188 6.0822872 7.2420304 6 7.28125 L 7.03125 9 C 6.8254297 9.0930738 6.5996152 9.2002898 6.34375 9.28125 C 7.3303894 9.9863136 8.9343341 11.226685 9.03125 11.15625 C 9.1278612 11.086036 8.4917316 9.1574411 8.125 8 C 7.9443819 8.255643 7.7386636 8.4824161 7.5625 8.65625 L 6.21875 7.125 z "
       transform="translate(85.911988,60.010216)"
       id="path4134" />
    <path
       sodipodi:type="arc"
       style="fill:#000000;fill-opacity:1"
       id="path2906"
       sodipodi:cx="8.137023"
       sodipodi:cy="7.5550094"
       sodipodi:rx="0.81210989"
       sodipodi:ry="0.81210989"
       d="m 8.9491329,7.5550094 a 0.81210989,0.81210989 0 1 1 -1.6242198,0 0.81210989,0.81210989 0 1 1 1.6242198,0 z"
       transform="matrix(0.92625985,0,0,0.92625985,83.942266,59.409284)" />
  </g>
</svg>
