<?xml version="1.0" encoding="UTF-8" standalone="no"?>
<!-- Created with Inkscape (http://www.inkscape.org/) -->
<svg
   xmlns:dc="http://purl.org/dc/elements/1.1/"
   xmlns:cc="http://creativecommons.org/ns#"
   xmlns:rdf="http://www.w3.org/1999/02/22-rdf-syntax-ns#"
   xmlns:svg="http://www.w3.org/2000/svg"
   xmlns="http://www.w3.org/2000/svg"
   xmlns:xlink="http://www.w3.org/1999/xlink"
   xmlns:sodipodi="http://sodipodi.sourceforge.net/DTD/sodipodi-0.dtd"
   xmlns:inkscape="http://www.inkscape.org/namespaces/inkscape"
   width="11.256444"
   height="12.205794"
   id="svg2"
   sodipodi:version="0.32"
   inkscape:version="0.46"
   sodipodi:docname="in.svg"
   inkscape:output_extension="org.inkscape.output.svg.inkscape"
   version="1.0">
  <sodipodi:namedview
     id="base"
     pagecolor="#ffffff"
     bordercolor="#666666"
     borderopacity="1.0"
     gridtolerance="10000"
     guidetolerance="10"
     objecttolerance="10"
     inkscape:pageopacity="0.0"
     inkscape:pageshadow="2"
     inkscape:zoom="8.0000001"
     inkscape:cx="56.617579"
     inkscape:cy="-11.374995"
     inkscape:document-units="px"
     inkscape:current-layer="layer1"
     inkscape:window-width="1429"
     inkscape:window-height="735"
     inkscape:window-x="8"
     inkscape:window-y="25"
     showgrid="false"
     inkscape:window-maximized="0"
     inkscape:snap-object-midpoints="true"
     inkscape:snap-page="true" />
  <defs
     id="defs4">
    <linearGradient
       inkscape:collect="always"
       id="linearGradient5971">
      <stop
         style="stop-color:#000000;stop-opacity:1;"
         offset="0"
         id="stop5973" />
      <stop
         style="stop-color:#000000;stop-opacity:0;"
         offset="1"
         id="stop5975" />
    </linearGradient>
    <inkscape:perspective
       sodipodi:type="inkscape:persp3d"
       inkscape:vp_x="0 : 5.5848475 : 1"
       inkscape:vp_y="0 : 1000 : 0"
       inkscape:vp_z="17.014498 : 5.5848475 : 1"
       inkscape:persp3d-origin="8.5072489 : 3.7232316 : 1"
       id="perspective8" />
    <radialGradient
       inkscape:collect="always"
       xlink:href="#linearGradient5971"
       id="radialGradient5979"
       cx="8.5"
       cy="5.578125"
       fx="8.5"
       fy="5.578125"
       r="9.1884527"
       gradientTransform="matrix(1,0,0,0.6820058,0,1.7738116)"
       gradientUnits="userSpaceOnUse" />
    <inkscape:perspective
       id="perspective2881"
       inkscape:persp3d-origin="0.5 : 0.33333333 : 1"
       inkscape:vp_z="1 : 0.5 : 1"
       inkscape:vp_y="0 : 1000 : 0"
       inkscape:vp_x="0 : 0.5 : 1"
       sodipodi:type="inkscape:persp3d" />
  </defs>
  <metadata
     id="metadata7">
    <rdf:RDF>
      <cc:Work
         rdf:about="">
        <dc:format>image/svg+xml</dc:format>
        <dc:type
           rdf:resource="http://purl.org/dc/dcmitype/StillImage" />
        <dc:title />
      </cc:Work>
    </rdf:RDF>
  </metadata>
  <g
     inkscape:label="Layer 1"
     id="layer1"
     inkscape:groupmode="layer"
     transform="translate(-87.404606,-60.674467)">
    <path
       style="fill:#000000"
       d="M 97.661482,60.674467 L 96.304664,62.166588 L 95.29287,63.244012 C 94.898349,62.858273 94.586016,62.39347 94.374408,61.891143 L 94.358424,65.697457 C 94.534947,65.700259 94.733078,65.731634 94.897184,65.825435 C 95.074614,65.926854 95.172638,66.085463 95.265358,66.251851 L 98.66105,64.341369 C 98.111916,64.422451 97.534702,64.369745 96.97497,64.205494 L 97.38989,62.786899 L 97.98705,60.86056 C 97.923511,60.840919 97.868901,60.829021 97.808758,60.794644 C 97.753481,60.763048 97.707508,60.714931 97.661482,60.674467 z"
       id="path2829" />
    <path
       sodipodi:type="arc"
       style="fill:#000000;fill-opacity:1"
       id="path2906"
       sodipodi:cx="8.137023"
       sodipodi:cy="7.5550094"
       sodipodi:rx="0.81210989"
       sodipodi:ry="0.81210989"
       d="M 8.9491329,7.5550094 A 0.81210989,0.81210989 0 1 1 7.3249131,7.5550094 A 0.81210989,0.81210989 0 1 1 8.9491329,7.5550094 z"
       transform="matrix(0.8681806,0.4962484,-0.4962484,0.8681806,91.035073,56.17557)" />
    <path
       style="fill:#000000"
       d="M 95.276854,67.302272 C 95.077224,67.651522 94.714151,67.809593 94.338777,67.809921 L 94.3034,71.713134 C 94.507752,71.197033 94.854362,70.728238 95.276472,70.325619 L 96.280243,71.403297 L 97.667695,72.880261 C 97.716459,72.83505 97.755106,72.783357 97.815003,72.748492 C 97.869974,72.716401 97.927459,72.721605 97.985556,72.702001 L 97.365627,70.76388 L 96.939434,69.368435 C 97.470752,69.219639 98.03045,69.153443 98.571284,69.22135 L 95.276854,67.302272 z"
       id="path3867" />
    <path
       style="fill:#000000"
       d="M 93.404839,66.232236 L 90.106524,64.382927 C 90.439496,64.814485 90.666491,65.330351 90.807909,65.863681 L 89.389218,66.204597 L 87.404606,66.653973 C 87.417196,66.713982 87.450852,66.760874 87.451097,66.824526 C 87.451452,66.893831 87.426522,66.953364 87.412312,67.018326 L 89.389059,67.464325 L 90.827047,67.782345 C 90.694335,68.350384 90.466285,68.886947 90.125281,69.324939 L 93.427958,67.325295 C 93.229027,66.999463 93.202003,66.587097 93.404839,66.232236 z"
       id="path3869" />
  </g>
</svg>
