<?xml version="1.0" encoding="UTF-8" standalone="no"?>
<!-- Created with Inkscape (http://www.inkscape.org/) -->

<svg
   xmlns:dc="http://purl.org/dc/elements/1.1/"
   xmlns:cc="http://creativecommons.org/ns#"
   xmlns:rdf="http://www.w3.org/1999/02/22-rdf-syntax-ns#"
   xmlns:svg="http://www.w3.org/2000/svg"
   xmlns="http://www.w3.org/2000/svg"
   xmlns:xlink="http://www.w3.org/1999/xlink"
   xmlns:sodipodi="http://sodipodi.sourceforge.net/DTD/sodipodi-0.dtd"
   xmlns:inkscape="http://www.inkscape.org/namespaces/inkscape"
   width="17.014498"
   height="11.169695"
   id="svg2"
   sodipodi:version="0.32"
   inkscape:version="0.47pre0 r21549"
   sodipodi:docname="arrow.svg"
   inkscape:output_extension="org.inkscape.output.svg.inkscape"
   version="1.0">
  <sodipodi:namedview
     id="base"
     pagecolor="#ffffff"
     bordercolor="#666666"
     borderopacity="1.0"
     gridtolerance="10000"
     guidetolerance="10"
     objecttolerance="10"
     inkscape:pageopacity="0.0"
     inkscape:pageshadow="2"
     inkscape:zoom="5.5507335"
     inkscape:cx="8.2285565"
     inkscape:cy="5.2923652"
     inkscape:document-units="px"
     inkscape:current-layer="layer1"
     inkscape:window-width="1429"
     inkscape:window-height="735"
     inkscape:window-x="8"
     inkscape:window-y="10"
     showgrid="false"
     inkscape:window-maximized="0" />
  <defs
     id="defs4">
    <linearGradient
       inkscape:collect="always"
       id="linearGradient5971">
      <stop
         style="stop-color:#000000;stop-opacity:1;"
         offset="0"
         id="stop5973" />
      <stop
         style="stop-color:#000000;stop-opacity:0;"
         offset="1"
         id="stop5975" />
    </linearGradient>
    <inkscape:perspective
       sodipodi:type="inkscape:persp3d"
       inkscape:vp_x="0 : 5.5848475 : 1"
       inkscape:vp_y="0 : 1000 : 0"
       inkscape:vp_z="17.014498 : 5.5848475 : 1"
       inkscape:persp3d-origin="8.5072489 : 3.7232316 : 1"
       id="perspective8" />
    <radialGradient
       inkscape:collect="always"
       xlink:href="#linearGradient5971"
       id="radialGradient5979"
       cx="8.5"
       cy="5.578125"
       fx="8.5"
       fy="5.578125"
       r="9.1884527"
       gradientTransform="matrix(1,0,0,0.6820058,0,1.7738116)"
       gradientUnits="userSpaceOnUse" />
    <inkscape:perspective
       id="perspective2881"
       inkscape:persp3d-origin="0.5 : 0.33333333 : 1"
       inkscape:vp_z="1 : 0.5 : 1"
       inkscape:vp_y="0 : 1000 : 0"
       inkscape:vp_x="0 : 0.5 : 1"
       sodipodi:type="inkscape:persp3d" />
  </defs>
  <metadata
     id="metadata7">
    <rdf:RDF>
      <cc:Work
         rdf:about="">
        <dc:format>image/svg+xml</dc:format>
        <dc:type
           rdf:resource="http://purl.org/dc/dcmitype/StillImage" />
        <dc:title></dc:title>
      </cc:Work>
    </rdf:RDF>
  </metadata>
  <g
     inkscape:label="Layer 1"
     id="layer1"
     inkscape:groupmode="layer"
     transform="translate(-85.911988,-60.010521)">
    <path
       style="fill:#000000"
       d="M 8.21875 0.03125 L 5.8125 4.28125 C 6.2454929 3.9501488 6.7412613 3.695388 7.28125 3.5625 L 7.625 5 L 7.96875 6.46875 C 8.0575602 6.4451852 8.1537748 6.40625 8.25 6.40625 C 8.3532651 6.40625 8.4366551 6.4417415 8.53125 6.46875 L 8.875 5 L 9.21875 3.5625 C 9.785982 3.690519 10.309236 3.9350092 10.75 4.28125 L 8.21875 0.03125 z M 12.1875 6.8125 C 12.22238 7.025818 12.25 7.245567 12.25 7.46875 C 12.25 7.8651495 12.200879 8.2642077 12.09375 8.625 L 10.71875 8.1875 L 9.28125 7.75 C 9.2325801 7.9413846 9.1353455 8.1146545 9 8.25 L 10.09375 9.28125 L 11.125 10.25 C 10.747979 10.639376 10.288706 10.972865 9.78125 11.1875 L 12.125 11.1875 L 14.6875 11.1875 L 12.1875 6.8125 z M 4.25 6.90625 L 1.78125 11.1875 L 4.375 11.1875 L 6.65625 11.1875 C 6.155177 10.975565 5.717964 10.663853 5.34375 10.28125 L 6.40625 9.28125 L 7.5 8.28125 C 7.3489906 8.1416343 7.2710367 7.955607 7.21875 7.75 L 5.8125 8.1875 L 4.375 8.625 C 4.2678713 8.2642077 4.1875 7.8651495 4.1875 7.46875 C 4.1875 7.274497 4.22344 7.093167 4.25 6.90625 z "
       id="path2829"
       transform="translate(85.911988,60.010521)" />
    <path
       sodipodi:type="arc"
       style="fill:#000000;fill-opacity:1"
       id="path2906"
       sodipodi:cx="8.137023"
       sodipodi:cy="7.5550094"
       sodipodi:rx="0.81210989"
       sodipodi:ry="0.81210989"
       d="m 8.9491329,7.5550094 a 0.81210989,0.81210989 0 1 1 -1.6242198,0 0.81210989,0.81210989 0 1 1 1.6242198,0 z"
       transform="translate(86.024309,59.952863)" />
  </g>
</svg>
