<?xml version="1.0" encoding="UTF-8" standalone="no"?>
<!-- Created with Inkscape (http://www.inkscape.org/) -->
<svg
   xmlns:dc="http://purl.org/dc/elements/1.1/"
   xmlns:cc="http://creativecommons.org/ns#"
   xmlns:rdf="http://www.w3.org/1999/02/22-rdf-syntax-ns#"
   xmlns:svg="http://www.w3.org/2000/svg"
   xmlns="http://www.w3.org/2000/svg"
   xmlns:xlink="http://www.w3.org/1999/xlink"
   xmlns:sodipodi="http://sodipodi.sourceforge.net/DTD/sodipodi-0.dtd"
   xmlns:inkscape="http://www.inkscape.org/namespaces/inkscape"
   width="11.21593"
   height="12.895849"
   id="svg2"
   sodipodi:version="0.32"
   inkscape:version="0.46"
   sodipodi:docname="out.svg"
   inkscape:output_extension="org.inkscape.output.svg.inkscape"
   version="1.0">
  <sodipodi:namedview
     id="base"
     pagecolor="#ffffff"
     bordercolor="#666666"
     borderopacity="1.0"
     gridtolerance="10000"
     guidetolerance="10"
     objecttolerance="10"
     inkscape:pageopacity="0.0"
     inkscape:pageshadow="2"
     inkscape:zoom="5.5507335"
     inkscape:cx="8.2285565"
     inkscape:cy="3.2205669"
     inkscape:document-units="px"
     inkscape:current-layer="layer1"
     inkscape:window-width="1429"
     inkscape:window-height="735"
     inkscape:window-x="8"
     inkscape:window-y="25"
     showgrid="false"
     inkscape:window-maximized="0" />
  <defs
     id="defs4">
    <linearGradient
       inkscape:collect="always"
       id="linearGradient5971">
      <stop
         style="stop-color:#000000;stop-opacity:1;"
         offset="0"
         id="stop5973" />
      <stop
         style="stop-color:#000000;stop-opacity:0;"
         offset="1"
         id="stop5975" />
    </linearGradient>
    <inkscape:perspective
       sodipodi:type="inkscape:persp3d"
       inkscape:vp_x="0 : 5.5848475 : 1"
       inkscape:vp_y="0 : 1000 : 0"
       inkscape:vp_z="17.014498 : 5.5848475 : 1"
       inkscape:persp3d-origin="8.5072489 : 3.7232316 : 1"
       id="perspective8" />
    <radialGradient
       inkscape:collect="always"
       xlink:href="#linearGradient5971"
       id="radialGradient5979"
       cx="8.5"
       cy="5.578125"
       fx="8.5"
       fy="5.578125"
       r="9.1884527"
       gradientTransform="matrix(1,0,0,0.6820058,0,1.7738116)"
       gradientUnits="userSpaceOnUse" />
    <inkscape:perspective
       id="perspective2881"
       inkscape:persp3d-origin="0.5 : 0.33333333 : 1"
       inkscape:vp_z="1 : 0.5 : 1"
       inkscape:vp_y="0 : 1000 : 0"
       inkscape:vp_x="0 : 0.5 : 1"
       sodipodi:type="inkscape:persp3d" />
  </defs>
  <metadata
     id="metadata7">
    <rdf:RDF>
      <cc:Work
         rdf:about="">
        <dc:format>image/svg+xml</dc:format>
        <dc:type
           rdf:resource="http://purl.org/dc/dcmitype/StillImage" />
        <dc:title />
      </cc:Work>
    </rdf:RDF>
  </metadata>
  <g
     inkscape:label="Layer 1"
     id="layer1"
     inkscape:groupmode="layer"
     transform="translate(-85.773389,-60.773306)">
    <path
       style="fill:#000000"
       d="M 96.907937,60.773306 L 92.706221,63.262909 C 93.24655,63.191106 93.803355,63.216756 94.337887,63.370126 L 93.920918,64.788121 L 93.488402,66.233223 C 93.577165,66.256965 93.679998,66.271057 93.76347,66.318929 C 93.853049,66.370304 93.907729,66.442578 93.97635,66.513068 L 95.005247,65.409998 L 96.018596,64.334037 C 96.446959,64.727287 96.779228,65.199693 96.989319,65.719325 L 96.907937,60.773306 z M 96.976995,68.63025 C 96.901126,68.832648 96.81576,69.037013 96.704726,69.230616 C 96.507516,69.574478 96.266373,69.896208 95.993948,70.155885 L 95.018844,69.092305 L 93.989523,67.997631 C 93.852089,68.139437 93.68154,68.241367 93.496798,68.29144 L 93.932537,69.730154 L 94.345153,71.083557 C 93.824386,71.233758 93.260072,71.294558 92.713091,71.228286 L 94.746207,72.394306 L 96.969081,73.669155 L 96.976995,68.63025 z M 90.044868,64.762652 L 85.773389,67.24827 L 88.02337,68.538665 L 90.00227,69.673592 C 89.673046,69.240461 89.448857,68.752548 89.314586,68.234482 L 90.733767,67.895615 L 92.180057,67.572295 C 92.118521,67.376056 92.143448,67.175902 92.200381,66.971533 L 90.762854,66.651436 L 89.298219,66.315792 C 89.384784,65.949521 89.513597,65.563368 89.710807,65.219506 C 89.807448,65.050999 89.928836,64.911582 90.044868,64.762652 z"
       id="path2829" />
    <path
       sodipodi:type="arc"
       style="fill:#000000;fill-opacity:1"
       id="path2906"
       sodipodi:cx="8.137023"
       sodipodi:cy="7.5550094"
       sodipodi:rx="0.81210989"
       sodipodi:ry="0.81210989"
       d="M 8.9491329,7.5550094 A 0.81210989,0.81210989 0 1 1 7.3249131,7.5550094 A 0.81210989,0.81210989 0 1 1 8.9491329,7.5550094 z"
       transform="matrix(0.8674628,0.497502,-0.497502,0.8674628,89.920143,56.663217)" />
  </g>
</svg>
