<?xml version="1.0" encoding="UTF-8" standalone="no"?>
<!-- Creator: CorelDRAW -->
<svg
   xmlns:dc="http://purl.org/dc/elements/1.1/"
   xmlns:cc="http://web.resource.org/cc/"
   xmlns:rdf="http://www.w3.org/1999/02/22-rdf-syntax-ns#"
   xmlns:svg="http://www.w3.org/2000/svg"
   xmlns="http://www.w3.org/2000/svg"
   xmlns:sodipodi="http://sodipodi.sourceforge.net/DTD/sodipodi-0.dtd"
   xmlns:inkscape="http://www.inkscape.org/namespaces/inkscape"
   xml:space="preserve"
   width="14"
   height="14"
   style="shape-rendering:geometricPrecision; text-rendering:geometricPrecision; image-rendering:optimizeQuality; fill-rule:evenodd; clip-rule:evenodd"
   viewBox="0 0 1000 1000"
   id="svg2"
   sodipodi:version="0.32"
   inkscape:version="0.45.1"
   sodipodi:docname="delete.svg"
   sodipodi:docbase="/home/gav/Modules/Martta/src"
   inkscape:output_extension="org.inkscape.output.svg.inkscape"
   version="1.0"><metadata
   id="metadata11"><rdf:RDF><cc:Work
       rdf:about=""><dc:format>image/svg+xml</dc:format><dc:type
         rdf:resource="http://purl.org/dc/dcmitype/StillImage" /></cc:Work></rdf:RDF></metadata><defs
   id="defs9" /><sodipodi:namedview
   inkscape:window-height="623"
   inkscape:window-width="872"
   inkscape:pageshadow="2"
   inkscape:pageopacity="0.0"
   guidetolerance="10.0"
   gridtolerance="10.0"
   objecttolerance="10.0"
   borderopacity="1.0"
   bordercolor="#666666"
   pagecolor="#ffffff"
   id="base"
   inkscape:zoom="11.313708"
   inkscape:cx="16.34534"
   inkscape:cy="4.2706153"
   inkscape:window-x="399"
   inkscape:window-y="106"
   inkscape:current-layer="svg2" />
 <g
   id="Слой_x0020_1"
   transform="matrix(1.0246426,0,0,1.0310209,-15.559543,-14.81756)">
  <metadata
   id="CorelCorpID_0Corel-Layer" />
  <path
   class="fil0"
   d="M 318.703,744.864 C 288.8034,740.59549 229.0053,719.2376 177.751,706.4226 C 156.3919,697.88086 135.0352,693.6076 122.2214,689.3391 C 109.4088,685.06587 100.8647,680.795 83.7824,689.3391 C 79.51035,689.3391 70.9674,689.3391 62.4257,689.3391 C 49.6107,693.60761 53.88396,689.3391 58.15247,680.795 C 58.15247,672.2509 62.4257,672.2509 66.69657,667.9824 C 70.96744,659.4383 70.96744,655.1686 66.69657,650.8942 C 66.69657,646.62451 66.69657,638.0804 66.69657,633.8095 C 70.96744,620.9969 79.51037,620.9969 83.78237,625.26776 C 100.86467,638.08036 117.95287,642.35356 130.76547,650.89416 C 190.56357,667.98236 250.36447,689.33906 310.15847,706.42256 C 310.15847,719.23756 314.43288,732.05136 318.70257,744.86396 L 318.703,744.864 z M 352.8723,847.374 C 310.1589,868.7307 263.177,881.5457 216.1923,898.6315 C 199.1041,907.17206 182.0218,915.7162 169.2092,924.2579 C 160.6651,928.53113 152.1234,932.79964 143.5793,941.3437 C 143.5793,941.3437 139.30961,941.3437 130.7655,937.07283 C 130.7655,919.98703 126.49699,902.90233 117.9529,894.35823 C 113.67849,881.54563 117.9529,877.27473 126.497,877.27473 C 147.8525,885.81883 160.6651,877.27473 169.2092,873.00386 L 340.0592,813.20576 C 340.0592,817.47663 344.33007,821.74514 348.6033,826.01836 C 348.6033,834.55892 352.87181,843.10306 352.87181,847.37386 L 352.8723,847.374 z M 673.2213,855.9181 L 698.8477,868.7307 C 724.4729,881.5457 750.1029,890.0874 780.0001,902.9024 C 805.63,907.17209 826.9856,915.7162 848.3423,928.5312 C 856.8864,932.79971 865.427,941.3438 873.9699,945.6123 C 882.514,945.6123 891.0569,941.34379 899.5963,928.5312 C 895.32779,915.7162 899.5963,907.1721 908.1404,898.6316 C 916.6845,890.0875 912.41127,885.819 903.87189,885.819 C 869.69899,894.35838 852.61319,890.08751 826.98559,881.54577 L 690.30359,826.01857 C 686.0339,834.55913 677.48979,843.10327 673.22129,855.91817 L 673.2213,855.9181 z M 720.2044,697.8801 C 775.7292,672.2502 831.2584,650.8934 886.7834,625.2671 C 895.3275,625.2671 903.8716,620.99623 912.411,616.72536 C 925.226,608.18362 933.7677,612.45213 938.0398,629.53796 C 933.76775,650.89346 942.31067,659.43756 950.8524,672.25016 C 955.12681,680.79426 955.12681,685.06516 946.58389,689.33836 C 942.31066,693.60687 929.49689,689.33836 912.41099,680.79426 C 878.23929,672.25016 856.88619,667.98166 835.52939,676.52457 L 715.93339,732.05057 C 715.93339,723.50647 715.93339,719.23677 715.93339,710.69267 C 715.93339,706.4218 720.20426,702.15093 720.20426,697.88007 L 720.2044,697.8801 z M 472.4654,757.6758 C 468.19689,753.40729 468.19689,740.5947 468.19689,732.0506 C 472.4654,727.77737 476.74099,727.77737 481.00949,727.77737 C 485.28036,732.0506 489.55359,732.0506 489.55359,740.59467 C 493.82328,744.86318 493.82328,753.40727 493.82328,757.67577 C 493.82328,761.95136 485.28036,761.95136 481.00948,761.95136 C 476.74097,761.95136 472.46538,761.95136 472.46538,757.67577 L 472.4654,757.6758 z M 442.5705,753.40729 C 442.5705,749.1317 442.5705,740.59469 442.5705,736.31909 C 442.5705,732.05058 446.84019,723.50649 451.11106,723.50649 C 455.38429,723.50649 455.38429,732.05059 455.38429,732.05059 C 459.6528,740.59469 459.6528,749.13169 455.38429,753.40729 C 451.11106,753.40729 446.84019,753.40729 442.57049,753.40729 L 442.5705,753.40729 z M 416.9406,727.77739 C 416.9406,723.50652 421.21619,714.96359 421.21619,714.96359 C 425.4847,714.96359 429.75439,719.23682 429.75439,723.50651 C 434.0288,727.77738 429.75439,740.59471 429.75439,740.59471 C 429.75439,744.86322 425.4847,744.86322 421.21619,744.86322 C 421.21619,744.86322 421.21619,744.86322 416.9406,740.59471 C 416.9406,736.31912 412.67209,732.05061 416.9406,727.77741 L 416.9406,727.77739 z M 391.3154,723.50652 C 391.3154,723.50652 395.58391,723.50652 399.8595,727.77739 C 404.12801,732.05062 404.12801,732.05062 404.12801,727.77739 C 408.39652,723.50652 408.39652,719.23683 408.39652,710.69269 C 404.12801,710.69269 404.12801,702.15095 399.85951,702.15095 C 395.58392,702.15095 391.31541,702.15095 391.31541,706.42182 C 391.31541,710.69269 391.31541,719.23682 391.31541,723.50652 L 391.3154,723.50652 z M 382.7713,740.59472 C 382.7713,736.31913 391.3154,736.31913 391.3154,740.59472 C 395.58391,740.59472 391.3154,749.13173 391.3154,753.40732 C 391.3154,757.67583 387.04217,757.67583 387.04217,757.67583 C 382.7713,757.67583 382.7713,744.86323 382.7713,740.59473 L 382.7713,740.59472 z M 399.8595,753.40732 C 399.8595,753.40732 404.12801,753.40732 408.39651,749.13173 C 408.39651,753.40732 412.6721,753.40732 412.6721,761.95143 C 412.6721,774.76403 412.6721,774.76403 412.6721,779.03373 C 404.128,779.03373 404.128,779.03373 404.128,774.76404 C 399.85949,770.48963 399.85949,766.21994 399.85949,766.21994 C 399.85949,761.95143 399.85949,757.67584 399.85949,753.40734 L 399.8595,753.40732 z M 425.4847,774.76402 C 425.4847,766.21992 434.0288,757.67582 434.0288,761.95142 C 442.57054,761.95142 442.57054,774.76402 442.57054,783.30572 C 442.57054,783.30572 438.29731,787.57659 438.29731,791.84628 C 434.0288,791.84628 434.0288,791.84628 429.75439,787.57659 C 425.4847,783.30572 425.4847,779.03367 425.4847,774.76399 L 425.4847,774.76402 z M 455.3843,770.48961 C 455.3843,766.21992 459.65281,770.48961 463.9284,770.48961 C 468.19691,770.48961 472.46541,774.76402 472.46541,774.76402 C 472.46541,783.30576 468.1969,791.84632 468.1969,796.11952 C 468.1969,796.11952 463.92839,800.39039 463.92839,800.39039 C 459.6528,800.39039 455.38429,796.11952 455.38429,791.84629 C 455.38429,787.5766 455.38429,779.03369 455.38429,770.48959 L 455.3843,770.48961 z M 485.2804,783.30581 C 485.2804,774.76407 502.3674,774.76407 498.0977,779.03376 C 502.36739,787.57668 502.36739,796.11956 498.0977,800.39046 C 493.82329,804.66369 489.5536,808.9322 485.2804,804.66369 C 485.2804,800.39046 485.2804,787.57669 485.2804,783.30579 L 485.2804,783.30581 z M 519.4533,804.66371 C 519.4533,800.39048 519.4533,800.39048 515.18243,796.11961 C 515.18243,787.57669 519.4533,783.30581 519.4533,779.03381 C 519.4533,774.76412 523.72417,774.76412 527.99504,774.76412 C 532.26591,774.76412 536.53914,779.03381 536.53914,783.30586 C 536.53914,791.84642 532.26591,800.39056 527.99504,804.66376 C 527.99504,804.66376 523.72417,804.66376 519.4533,804.66376 L 519.4533,804.66371 z M 549.3517,774.76411 C 549.3517,770.4897 553.62257,770.4897 557.89344,770.4897 C 562.16667,774.76411 566.43636,774.76411 566.43636,779.0338 C 566.43636,783.30585 562.16667,791.8464 562.16667,800.3905 C 562.16667,804.66373 557.89344,804.66373 557.89344,804.66373 C 553.62257,804.66373 549.3517,804.66373 549.3517,800.3905 C 549.3517,796.11963 549.3517,783.3058 549.3517,774.7641 L 549.3517,774.76411 z M 506.6383,740.59481 C 506.6383,736.31922 506.6383,732.05071 510.91153,732.05071 C 519.45327,732.05071 523.72413,736.31922 523.72413,740.59481 C 523.72413,744.86332 523.72413,757.67591 523.72413,761.95151 C 519.45326,766.22002 506.63833,766.22002 506.63833,761.95151 C 502.36746,753.40741 502.36746,744.86331 506.63833,740.59481 L 506.6383,740.59481 z M 536.5391,732.05071 C 540.80997,723.50661 545.07848,723.50661 549.3517,723.50661 C 553.62257,732.05071 553.62257,732.05071 553.62257,732.05071 C 557.89344,744.86331 557.89344,753.40741 553.62257,757.67591 C 553.62257,757.67591 553.62257,761.9515 549.3517,761.9515 C 545.07847,761.9515 540.80996,761.9515 536.5391,753.4074 C 536.5391,749.13181 536.5391,740.5948 536.5391,732.0507 L 536.5391,732.05071 z M 570.7072,719.23691 C 570.7072,710.69281 587.7954,714.96368 587.7954,723.5066 C 587.7954,732.0507 592.06391,740.5948 592.06391,744.8633 C 583.51981,749.13181 579.25131,753.4074 579.25131,753.4074 C 570.70721,753.4074 570.70721,753.4074 570.70721,749.13181 C 566.43634,740.5948 570.70721,727.77751 570.70721,719.23691 L 570.7072,719.23691 z M 600.608,732.05071 C 600.608,740.59481 604.87651,740.59481 613.4206,740.59481 C 621.9647,736.31922 621.9647,727.77751 621.9647,723.50661 C 617.69147,719.23692 617.69147,714.96369 613.4206,710.69281 C 609.15209,706.42194 604.8765,710.69281 600.608,714.96368 C 600.608,719.23691 600.608,723.5066 600.608,732.05068 L 600.608,732.05071 z M 634.7785,697.88021 C 634.7785,693.60698 639.04937,693.60698 643.32024,693.60698 C 647.59111,697.88021 643.32024,697.88021 647.59111,706.42198 C 643.32024,714.96372 643.32024,719.23698 639.04937,719.23698 C 634.7785,723.50667 630.50645,723.50667 630.50645,719.23698 C 630.50645,710.69288 630.50645,710.69288 630.50645,702.15118 C 630.50645,702.15118 630.50645,697.88031 634.7785,697.88031 L 634.7785,697.88021 z M 656.1328,719.23691 C 656.1328,727.77747 656.1328,740.59481 656.1328,744.86331 C 656.1328,744.86331 664.6769,736.31921 668.9454,736.31921 C 668.9454,727.77747 664.67689,727.77747 664.67689,719.23691 C 664.67689,719.23691 660.40838,719.23691 656.13279,719.23691 L 656.1328,719.23691 z M 634.7785,744.86331 C 639.04937,744.86331 643.32024,736.31921 643.32024,740.5948 C 647.59111,744.86331 647.59111,753.4074 643.32024,761.9515 C 643.32024,766.22001 639.04937,761.9515 639.04937,761.9515 C 634.7785,753.4074 634.7785,749.1318 634.7785,744.8633 L 634.7785,744.86331 z M 613.4206,757.67591 C 613.4206,753.4074 621.9647,749.13181 626.2344,753.4074 C 626.2344,761.9515 626.2344,766.22 621.96471,774.7641 C 621.96471,779.03379 621.96471,783.30584 617.69148,783.30584 C 613.42061,783.30584 613.42061,783.30584 613.42061,779.03379 C 609.1521,766.21999 613.42061,761.95149 613.42061,757.67589 L 613.4206,757.67591 z M 583.5198,774.76411 C 583.5198,766.22001 583.5198,766.22001 592.0639,766.22001 C 596.33713,766.22001 596.33713,766.22001 596.33713,766.22001 C 596.33713,779.03381 596.33713,787.57671 596.33713,796.11961 C 592.0639,800.39048 583.51983,796.11961 583.51983,791.84638 C 579.25132,787.57669 579.25132,779.03378 583.51983,774.76408 L 583.5198,774.76411 z M 574.98042,454.32611 C 557.89342,420.15561 562.16662,398.79891 583.5198,385.98391 C 604.8765,368.89921 634.7785,368.89921 660.4084,368.89921 C 694.5777,368.89921 707.3915,381.71301 707.3915,403.06731 C 715.93324,428.69371 707.3915,454.32601 694.5777,479.95241 C 668.9454,514.11941 634.7784,526.93431 613.4205,497.03821 C 592.0638,484.22441 583.5197,475.68031 574.9803,454.32601 L 574.98042,454.32611 z M 327.24542,428.69381 C 331.51511,407.33831 344.33012,390.25721 382.77142,381.71311 C 404.12812,373.16901 434.02892,373.16901 451.11122,385.98398 C 481.00962,403.06748 476.74112,415.88128 472.46552,437.23798 C 468.19701,454.32618 451.11122,484.22468 425.48482,509.85098 C 404.12812,522.66358 382.77142,518.39508 357.14502,497.03838 C 331.51512,471.40848 318.70252,450.05058 327.24542,428.69388 L 327.24542,428.69381 z M 698.84742,817.47681 C 703.11593,817.47681 707.39152,821.74532 715.93322,826.01855 C 754.37222,838.83355 792.81712,855.91815 831.25822,868.73075 C 856.88582,877.27485 882.51342,877.27485 903.87122,868.73075 C 916.68382,868.73075 925.22552,868.73075 929.49642,881.54575 C 929.49642,894.35835 925.22555,898.63155 920.95232,907.17215 C 912.41058,915.71625 908.13972,924.25795 912.41058,932.79975 C 908.13971,954.15645 895.32708,962.70055 873.96918,962.70055 C 856.88568,954.15645 844.07078,941.34385 826.98488,932.79975 C 805.62938,924.25801 784.27268,919.98715 762.91598,907.17215 L 660.40798,868.73075 C 621.96428,911.44535 570.70668,937.07295 515.18198,937.07295 C 455.38388,937.07295 395.58298,911.44535 361.41498,860.19025 L 216.19098,915.71625 C 203.37718,915.71625 182.02048,932.79975 169.20788,941.34385 C 160.66378,949.88795 152.12208,958.43205 143.57798,958.43205 C 130.76418,954.15646 117.95158,949.88795 113.67718,932.79975 C 113.67718,919.98715 109.40749,911.44545 100.86338,902.90245 C 96.59487,890.08745 92.32164,881.54575 100.86338,868.73075 C 109.40748,864.45988 122.22008,860.19019 135.03388,864.45988 C 152.12208,868.73075 164.93468,864.45988 173.47638,855.91814 C 224.73508,838.83344 275.98938,821.74524 327.24438,804.66414 L 331.51407,791.84684 C 331.51407,783.30628 327.24438,779.03424 327.24438,766.22044 C 263.17548,744.86374 194.83338,723.50704 126.49538,706.42234 C 113.67688,697.8806 100.86308,697.8806 83.78078,706.42234 C 66.69498,710.69321 49.60908,710.69321 41.06968,702.15147 C 36.79409,693.60737 36.79409,689.33887 36.79409,685.06567 C 36.79409,672.25067 49.60909,663.71247 53.88229,655.16837 C 58.1508,638.08017 49.60906,620.99667 66.69489,608.18407 C 75.23781,603.91202 83.78069,603.91202 92.32129,608.18407 C 100.86303,616.72581 109.40709,620.99667 122.21969,625.26757 C 147.85079,638.08017 182.02009,650.89397 211.91739,659.43807 C 241.81819,667.98217 275.98869,680.79477 305.88719,689.33887 C 297.34309,642.35337 280.25959,620.99667 263.17499,608.18407 C 254.63089,595.36787 250.36239,586.82617 246.08919,582.55527 C 233.27419,565.47177 224.73489,544.11387 229.00339,518.48637 C 233.27426,497.12727 237.54749,475.77057 241.81839,458.68827 C 237.54752,445.87567 229.00339,433.05837 224.73489,420.24577 C 194.83289,368.99177 177.74939,317.73777 199.10259,249.39577 C 237.54749,104.16977 369.95659,31.55777 506.63659,35.83077 C 673.21959,40.10046 797.08359,138.33877 814.17059,253.66377 C 831.25639,334.81857 809.89854,415.97577 767.18279,497.12677 C 771.45838,501.4 771.45838,505.67087 771.45838,509.94407 C 792.81508,552.65397 779.99776,582.55477 758.64458,608.18347 C 741.55638,616.72521 728.74378,646.62367 724.47058,659.43747 C 724.47058,663.71188 720.20207,667.98157 720.20207,676.52447 C 728.74381,672.25006 737.28787,672.25006 745.82847,667.98155 C 784.27097,650.89335 822.71237,633.80865 861.15247,620.99605 C 878.23717,612.45195 891.05447,608.18345 903.86947,599.63935 C 912.40885,591.09879 925.22377,591.09879 933.76557,599.63935 C 950.85027,608.18345 946.58177,616.72515 950.85027,629.53775 C 946.58176,646.62355 955.12468,655.16765 959.39437,663.71175 C 967.93847,667.98144 972.20697,676.52435 967.93847,685.06495 C 967.93847,689.33818 967.93847,693.60669 967.93847,697.87995 C 955.12467,710.69255 942.30857,710.69255 929.49477,706.42169 C 878.23727,689.33819 848.33997,689.33819 826.98377,697.87995 C 788.54007,714.96345 754.37077,732.05045 715.93177,749.13155 C 711.65854,766.21975 707.39003,783.30555 698.84597,804.66345 C 698.84597,808.93196 698.84597,813.20519 698.84597,817.47605 L 698.84742,817.47681 z M 374.22842,702.15181 C 378.50165,702.15181 382.77134,702.15181 387.04222,697.88094 C 387.04222,693.60771 399.85952,689.3392 408.39652,693.60771 C 412.67211,697.88094 412.67211,697.88094 421.21622,697.88094 C 425.48473,697.88094 429.75442,702.15181 434.02882,706.42268 C 438.29733,710.69355 442.57056,710.69355 446.84022,710.69355 C 451.11109,710.69355 455.38432,710.69355 459.65282,714.96442 C 463.92841,719.23765 472.46542,714.96442 476.74102,714.96442 C 481.00953,710.69355 485.2804,710.69355 489.55362,719.23765 C 489.55362,719.23765 498.09772,719.23765 502.36742,719.23765 C 506.63829,714.96442 515.18242,719.23765 519.45322,719.23765 C 523.72409,723.50734 527.99496,719.23765 536.53902,719.23765 C 536.53902,710.69355 540.80989,714.96442 549.35162,714.96442 C 557.89336,714.96442 557.89336,706.42268 562.16662,706.42268 C 570.70718,697.88094 579.25132,702.15181 583.51982,706.42268 C 592.06392,706.42268 592.06392,702.15181 596.33712,697.88094 C 600.60799,693.60771 604.8765,693.60771 613.42062,693.60771 C 617.69149,697.88094 621.96472,689.3392 626.23442,685.06597 C 634.77852,680.7951 643.32022,676.52541 651.86432,680.7951 C 651.86432,680.7951 660.40842,685.06597 664.67692,689.3392 C 668.94543,638.0805 686.03362,616.7262 737.28992,586.8262 C 779.99982,561.1963 758.64662,518.4864 745.83048,480.0452 C 733.01668,437.3318 720.20408,403.1636 750.10253,322.0062 C 758.64663,292.1089 750.10253,266.4766 737.28993,236.5805 C 737.28993,228.03758 741.55844,228.03758 745.83049,236.5805 C 762.91629,257.9372 767.18479,270.7522 767.18479,296.3786 C 762.91628,334.8188 745.83049,373.2625 745.83049,407.4316 C 750.10254,428.7871 750.10254,454.4135 758.64669,480.0446 C 788.54159,424.5186 814.17269,351.9046 801.35659,257.9366 C 779.99989,142.6116 664.67659,57.1856 506.63859,52.9146 C 399.85959,57.18547 254.63259,104.1686 216.19259,253.6636 C 194.83469,317.7373 211.91936,373.2626 250.36429,433.0576 C 258.90485,407.4312 258.90485,373.2619 254.6328,334.8182 C 246.09106,304.9221 250.36429,279.291 258.90485,257.9366 C 258.90485,249.39486 271.71745,249.39486 271.71745,257.9366 C 258.90485,292.1083 263.17689,317.737 267.44894,343.3623 C 275.99068,377.5304 275.99068,407.4312 267.44894,433.0576 C 258.90484,458.6875 250.36424,480.0443 241.82014,509.9439 C 237.54927,556.927 263.17684,591.0987 314.43314,603.9113 C 352.87214,620.996 369.95794,650.8932 374.22884,702.1507 L 374.22842,702.15181 z M 481.00942,535.57181 C 498.09762,514.21391 519.45312,509.94541 536.53902,531.29976 C 557.89332,561.19706 562.16662,595.36866 562.16662,625.26836 C 562.16662,655.16916 523.72412,650.89476 506.63822,633.8101 C 476.74092,655.1692 455.38422,642.3542 451.11102,620.9975 C 446.84015,599.6408 463.92832,556.9286 481.00942,535.5718 L 481.00942,535.57181 z M 677.48942,710.69381 C 677.48942,719.23791 677.48942,732.05171 677.48942,744.86431 C 673.22091,753.40841 673.22091,757.67691 664.67682,757.67691 C 660.40831,761.9525 656.13272,761.9525 656.13272,770.49071 C 651.86421,774.76512 647.59098,774.76512 643.32012,774.76512 C 639.04925,774.76512 634.77838,783.30686 634.77838,787.57772 C 626.23428,796.12064 621.96458,791.84741 613.42048,791.84741 C 609.15197,791.84741 604.87638,800.39151 600.60788,804.66471 C 596.33701,813.20645 587.79528,813.20645 579.25118,813.20645 C 574.98031,808.93322 570.70708,808.93322 566.43618,808.93322 C 557.89326,813.20645 553.62238,817.47732 549.35148,817.47732 C 545.07825,813.20645 540.80974,808.93322 536.53888,817.47732 C 527.99478,826.01906 519.45308,821.74583 515.18218,817.47732 C 510.91131,817.47732 506.63808,813.20645 502.36718,817.47732 C 493.82308,821.74583 485.28018,821.74583 476.74078,817.47732 C 476.74078,813.20645 463.92818,808.93322 459.65258,813.20645 C 455.38407,813.20645 455.38407,817.47732 446.83998,813.20645 C 446.83998,808.93322 442.57029,804.66471 434.02858,804.66471 C 429.75417,804.66471 425.48448,800.39148 421.21598,796.12061 C 421.21598,791.84738 416.94039,791.84738 408.39628,791.84738 C 399.85927,791.84738 399.85927,787.57769 395.58368,783.30682 C 395.58368,783.30682 387.04194,774.76508 382.77108,774.76508 C 369.95728,761.95248 365.68878,732.05168 365.68878,714.96468 C 352.87148,650.89458 335.78918,625.26818 297.34428,616.72638 C 310.15808,646.62478 318.70218,672.25118 327.24508,723.50738 C 335.78918,774.76488 352.87148,817.47718 369.95728,847.37438 C 451.11088,966.97038 621.96428,941.34418 681.75928,808.93298 C 698.84748,779.03458 703.11598,744.86408 703.11598,702.15198 C 707.39157,646.62478 720.20418,638.08068 728.74588,612.45308 C 677.48958,642.35388 681.75918,676.52558 677.48958,710.69368 C 677.48958,710.69368 677.48958,710.69368 677.48958,710.69368 L 677.48942,710.69381 z "
   id="path6" />
 </g>
</svg>