<?xml version="1.0" encoding="UTF-8" standalone="no"?>
<!-- Created with Inkscape (http://www.inkscape.org/) -->
<svg
   xmlns:dc="http://purl.org/dc/elements/1.1/"
   xmlns:cc="http://creativecommons.org/ns#"
   xmlns:rdf="http://www.w3.org/1999/02/22-rdf-syntax-ns#"
   xmlns:svg="http://www.w3.org/2000/svg"
   xmlns="http://www.w3.org/2000/svg"
   xmlns:sodipodi="http://sodipodi.sourceforge.net/DTD/sodipodi-0.dtd"
   xmlns:inkscape="http://www.inkscape.org/namespaces/inkscape"
   id="svg2"
   sodipodi:version="0.32"
   inkscape:version="0.46"
   width="14"
   height="16"
   sodipodi:docbase="/home/piotr"
   sodipodi:docname="fire.svg"
   inkscape:output_extension="org.inkscape.output.svg.inkscape"
   version="1.0">
  <metadata
     id="metadata7">
    <rdf:RDF>
      <cc:Work
         rdf:about="">
        <dc:format>image/svg+xml</dc:format>
        <dc:type
           rdf:resource="http://purl.org/dc/dcmitype/StillImage" />
      </cc:Work>
    </rdf:RDF>
  </metadata>
  <defs
     id="defs5">
    <inkscape:perspective
       sodipodi:type="inkscape:persp3d"
       inkscape:vp_x="0 : 213.68126 : 1"
       inkscape:vp_y="0 : 1000 : 0"
       inkscape:vp_z="312.85001 : 213.68126 : 1"
       inkscape:persp3d-origin="156.425 : 142.45417 : 1"
       id="perspective3104" />
  </defs>
  <sodipodi:namedview
     inkscape:cy="12.659377"
     inkscape:cx="12.415219"
     inkscape:zoom="9.8238822"
     inkscape:window-height="701"
     inkscape:window-width="724"
     inkscape:pageshadow="2"
     inkscape:pageopacity="0.0"
     borderopacity="1.0"
     bordercolor="#666666"
     pagecolor="#ffffff"
     id="base"
     showguides="true"
     inkscape:guide-bbox="true"
     inkscape:window-x="2624"
     inkscape:window-y="482"
     inkscape:current-layer="svg2"
     showgrid="false" />
  <g
     id="g3106"
     transform="matrix(4.7201971e-2,0,0,4.4886724e-2,-0.4202684,-1.5691811)">
    <path
       sodipodi:nodetypes="cccccc"
       id="path2043"
       d="M 58.954538,347.23395 C -9.0375362,242.85087 73.060087,233.52847 52.118826,90.624027 C 103.47625,158.04097 117.81456,240.73539 139.37527,265.19403 C 154.25562,284.40262 161.59446,307.58892 159.59376,331.41129 C 159.39203,350.26495 183.21886,373.1096 176.70356,390.71179 C 142.05967,362.96302 82.471056,381.04953 58.954538,347.23395 z"
       style="fill:#e73900;fill-opacity:1;fill-rule:evenodd;stroke:none;stroke-width:1.00000038pt;stroke-linecap:butt;stroke-linejoin:miter;stroke-opacity:1" />
    <path
       sodipodi:nodetypes="cccccccc"
       id="path2041"
       d="M 161.7809,377.71368 C 162.17394,357.72344 137.98474,349.05131 128.25468,333.43921 C 112.13998,321.51425 107.03539,302.95237 106.6797,284.67338 C 105.3699,255.43969 131.42797,81.130787 169.39083,34.317227 C 154.84243,106.20319 190.95986,201.95975 213.27368,233.63802 C 228.37325,258.25159 234.04993,286.59077 228.61098,314.4757 C 225.93875,336.72294 207.50985,350.09104 197.54046,370.04477 C 187.56794,382.06155 173.99637,383.2001 161.7809,377.71368 z"
       style="fill:#e73900;fill-opacity:1;fill-rule:evenodd;stroke:none;stroke-width:1.00000019pt;stroke-linecap:butt;stroke-linejoin:miter;stroke-opacity:1" />
    <path
       sodipodi:nodetypes="cccccsc"
       id="path2063"
       d="M 175.5607,387.49258 C 181.34732,370.12555 169.89584,342.59764 166.28978,326.49036 C 156.50645,311.98657 157.45181,294.47421 162.16418,278.41263 C 169.1009,252.5375 170.24611,130.43176 282.18931,73.090747 C 195.37176,158.27337 253.01889,227.50163 262.41698,260.83623 C 267.90747,286.1695 265.10079,312.57338 252.71951,335.35605 C 235.62589,366.80984 189.98643,384.1453 175.5607,387.49258 z"
       style="fill:#e73900;fill-opacity:1;fill-rule:evenodd;stroke:none;stroke-width:1.00000019pt;stroke-linecap:butt;stroke-linejoin:miter;stroke-opacity:1" />
    <path
       sodipodi:nodetypes="cccccccc"
       id="path1305"
       d="M 157.11595,377.31308 C 157.41324,360.99333 139.11698,353.91353 131.75734,341.16803 C 119.56848,331.43266 115.70747,316.27901 115.43843,301.3563 C 114.44772,277.49033 138.76417,151.31016 158.26535,96.969074 C 144.9579,220.14835 179.18637,233.83006 196.06413,259.69175 C 207.48516,279.78592 211.7789,302.92163 207.66498,325.68649 C 205.64375,343.84882 196.93101,360.40351 189.39035,376.69345 C 181.84733,386.50378 166.3555,381.79212 157.11595,377.31308 z"
       style="fill:#e78c00;fill-opacity:1;fill-rule:evenodd;stroke:none;stroke-width:1pt;stroke-linecap:butt;stroke-linejoin:miter;stroke-opacity:1" />
    <path
       sodipodi:nodetypes="ccccs"
       id="path2061"
       d="M 86.962916,353.92652 C 17.122271,282.22188 93.219654,277.22825 73.850421,178.75181 C 96.853406,225.16841 115.9283,260.03757 124.30427,292.99564 C 136.69965,304.63371 179.52956,375.67858 176.96261,388.55917 C 149.97037,373.1925 107.07292,374.57324 86.962916,353.92652 z"
       style="fill:#e78c00;fill-opacity:1;fill-rule:evenodd;stroke:none;stroke-width:1.00000038pt;stroke-linecap:butt;stroke-linejoin:miter;stroke-opacity:1" />
    <path
       sodipodi:nodetypes="ccccs"
       id="path2051"
       d="M 100.90993,349.60902 C 59.13153,309.94963 90.331519,286.66405 89.958257,237.12916 C 101.50753,280.4819 138.03801,291.16418 137.56899,317.20683 C 143.6039,324.99711 175.20329,380.55139 172.56093,387.69017 C 158.51069,376.43632 116.73917,364.63539 100.90993,349.60902 z"
       style="fill:#e7e100;fill-opacity:1;fill-rule:evenodd;stroke:none;stroke-width:1.00000038pt;stroke-linecap:butt;stroke-linejoin:miter;stroke-opacity:1" />
    <path
       sodipodi:nodetypes="ccccscc"
       id="path2045"
       d="M 168.06466,344.26386 C 160.72427,333.38172 161.43357,320.24226 164.96924,308.19132 C 170.17384,288.77731 193.04058,180.86728 225.70733,157.39646 C 202.1163,201.75673 233.13719,269.99299 240.18854,295.00381 C 244.30803,314.01127 245.46019,336.49369 232.91256,350.91575 C 213.95716,372.70282 190.03074,385.39081 176.62257,388.4328 C 168.09893,394.41435 170.77028,356.34909 168.06466,344.26386 z"
       style="fill:#e78c00;fill-opacity:1;fill-rule:evenodd;stroke:none;stroke-width:1.00000019pt;stroke-linecap:butt;stroke-linejoin:miter;stroke-opacity:1" />
    <path
       sodipodi:nodetypes="cccccccc"
       id="path1310"
       d="M 156.26263,378.50754 C 156.85249,368.52316 145.82747,363.73128 141.64003,355.74389 C 134.42066,349.47877 132.43545,340.10441 132.64366,330.96121 C 132.63352,316.32444 132.13408,225.08473 150.66965,202.40327 C 142.46571,238.05937 173.36108,291.21117 183.04824,307.46686 C 189.53862,320.05501 191.58929,334.32722 188.50163,348.16227 C 186.81024,359.2317 181.06211,369.14963 176.03822,378.93475 C 171.17481,384.75264 161.80764,381.48077 156.26263,378.50754 z"
       style="fill:#e7e100;fill-opacity:1;fill-rule:evenodd;stroke:none;stroke-width:0.99999981pt;stroke-linecap:butt;stroke-linejoin:miter;stroke-opacity:1" />
    <path
       sodipodi:nodetypes="cccccccc"
       id="path2047"
       d="M 165.07971,379.78285 C 169.82548,372.8324 163.94217,364.60379 164.37613,357.02753 C 161.87679,349.38233 164.50019,341.75796 168.60657,335.24947 C 174.93233,324.68184 186.04879,246.14809 209.23968,237.79908 C 187.89115,259.98212 224.96331,319.29385 224.9209,335.21693 C 224.15827,347.10998 209.69078,363.18348 201.47625,371.83216 C 195.46602,379.08904 183.57136,386.06293 175.71181,390.95103 C 169.6846,387.28717 167.79503,384.32783 165.07971,379.78285 z"
       style="fill:#e7e100;fill-opacity:1;fill-rule:evenodd;stroke:none;stroke-width:0.99999981pt;stroke-linecap:butt;stroke-linejoin:miter;stroke-opacity:1" />
    <path
       sodipodi:nodetypes="cccccc"
       id="path2049"
       d="M 157.0795,371.83477 C 142.32343,348.59334 147.79797,322.66451 154.07316,294.38362 C 156.9318,313.57278 168.83978,336.85929 175.57139,344.49568 C 180.21728,350.49292 182.50859,357.73206 181.88394,365.16979 C 181.82095,371.05622 178.83269,378.18869 176.79851,383.68439 C 165.98211,375.02076 164.42174,382.39254 157.0795,371.83477 z"
       style="fill:#ffff9e;fill-opacity:1;fill-rule:evenodd;stroke:none;stroke-width:1.00000114pt;stroke-linecap:butt;stroke-linejoin:miter;stroke-opacity:1" />
    <path
       sodipodi:nodetypes="ccscc"
       id="path2065"
       d="M 173.66742,360.30753 C 185.09865,335.26291 173.78233,315.54608 199.98154,295.89855 C 192.15796,314.11325 210.05125,342.87411 208.10427,352.84701 C 204.82999,369.61861 182.21917,382.10143 176.50343,383.39406 C 177.86514,369.6028 168.82319,372.22006 173.66742,360.30753 z"
       style="fill:#ffff9e;fill-opacity:1;fill-rule:evenodd;stroke:none;stroke-width:1.00000114pt;stroke-linecap:butt;stroke-linejoin:miter;stroke-opacity:1" />
    <path
       sodipodi:nodetypes="ccc"
       id="path2067"
       d="M 92.049535,278.33689 C 153.50277,356.0529 152.14455,316.81741 176.51446,383.37417 C 60.355771,331.65699 112.48851,336.32499 92.049535,278.33689 z"
       style="fill:#ffff9e;fill-opacity:1;fill-rule:evenodd;stroke:none;stroke-width:1.00000114pt;stroke-linecap:butt;stroke-linejoin:miter;stroke-opacity:1" />
  </g>
</svg>
