/* XPM */
static char *Martta[] = {
/* columns rows colors chars-per-pixel */
"32 32 184 2",
"   c #0C1118",
".  c #0C1119",
"X  c #0D1219",
"o  c #1D1D1D",
"O  c #1E1E1E",
"+  c #333A47",
"@  c #364051",
"#  c #454950",
"$  c #4A4F57",
"%  c #4D4F57",
"&  c #4A4F58",
"*  c #4B4F59",
"=  c #4B5059",
"-  c #4B515A",
";  c #5B5C5E",
":  c #4B5361",
">  c #4B566B",
",  c #4D5769",
"<  c #4D576A",
"1  c #4E586A",
"2  c #495771",
"3  c #4A5872",
"4  c #646464",
"5  c #656565",
"6  c gray45",
"7  c gray46",
"8  c #425982",
"9  c #425B87",
"0  c #445D8B",
"q  c #445D8C",
"w  c #465F8D",
"e  c #465F8E",
"r  c #47608F",
"t  c #5473AA",
"y  c #5473AB",
"u  c #5574AC",
"i  c #5574AD",
"p  c #5675AE",
"a  c #5776AF",
"s  c #5876AC",
"d  c #5877B1",
"f  c #5877B2",
"g  c #5978B3",
"h  c #5A79B4",
"j  c #5B7AB6",
"k  c #5C7BB7",
"l  c #5C7BB8",
"z  c #5D7CB8",
"x  c #5D7CB9",
"c  c #5E7DBA",
"v  c #5F7EBC",
"b  c #5F7EBD",
"n  c #617DAF",
"m  c #637EAF",
"M  c #607FBD",
"N  c #6680B0",
"B  c #6680B1",
"V  c #6983B4",
"C  c #6A84B5",
"Z  c #6380B9",
"A  c #6984B8",
"S  c #6F8ABD",
"D  c #758BB3",
"F  c #7089B5",
"G  c #758DBE",
"H  c #768EBE",
"J  c #6281C0",
"K  c #6382C2",
"L  c #6483C3",
"P  c #6483C4",
"I  c #6584C5",
"U  c #6685C7",
"Y  c #6786C8",
"T  c #6786C9",
"R  c #6887C9",
"E  c #6988CB",
"W  c #6988CC",
"Q  c #6A89CC",
"!  c #6A89CD",
"~  c #6B8ACF",
"^  c #6C8BCF",
"/  c #728EC7",
"(  c #7392CF",
")  c #7493CE",
"_  c #7593CE",
"`  c #7492CF",
"'  c #7795CC",
"]  c #7694CD",
"[  c #7695CD",
"{  c #7795CD",
"}  c #7796CC",
"|  c #7594CE",
" . c #7897CB",
".. c #7896CC",
"X. c #7897CC",
"o. c #7997CD",
"O. c #7B9AC9",
"+. c #7998CB",
"@. c #7A98CA",
"#. c #7C9AC9",
"$. c #7C9BC9",
"%. c #7F9DC9",
"&. c #6C8BD0",
"*. c #6D8CD1",
"=. c #6D8CD2",
"-. c #6E8DD2",
";. c #6E8DD3",
":. c #6F8ED2",
">. c #6F8ED3",
",. c #708FD1",
"<. c #708FD2",
"1. c #7190D0",
"2. c #7190D1",
"3. c #7291D0",
"4. c #8396B8",
"5. c #8699BA",
"6. c #8799BB",
"7. c #879ABC",
"8. c #899CBF",
"9. c #A3ADBF",
"0. c #A6AEBE",
"q. c #8B9FC7",
"w. c #839FC9",
"e. c #809DCA",
"r. c #849FCA",
"t. c #879DCE",
"y. c #88A3C9",
"u. c #8AA2CB",
"i. c #8CA4CA",
"p. c #8AA1CE",
"a. c #90A3CE",
"s. c #96AAC9",
"d. c #95AACA",
"f. c #96A9CF",
"g. c #9DABC9",
"h. c #9FADC8",
"j. c #9FAECE",
"k. c #93A6D1",
"l. c #95A8D0",
"z. c #A3AEC1",
"x. c #A4AEC0",
"c. c #A5AEC1",
"v. c #A6AFC2",
"b. c #A6B0C2",
"n. c #A6B0C4",
"m. c #A7B1C4",
"M. c #A7B1C5",
"N. c #A8B0C0",
"B. c #A8B1C6",
"V. c #A8B2C6",
"C. c #AAB5C7",
"Z. c #ACB5C6",
"A. c #A7B2CB",
"S. c #A4B3CF",
"D. c #ACB6C9",
"F. c #B6BBC4",
"G. c #B7BCC5",
"H. c #B7BCC6",
"J. c #B8BDC6",
"K. c #B8BDC7",
"L. c #B9BDC7",
"P. c #B0BACA",
"I. c #A2B1D1",
"U. c #A3B2D0",
"Y. c #B8C0CC",
"T. c #C2C7CE",
"R. c #C2C7D1",
"E. c #C7CCD3",
"W. c #CBCDD1",
"Q. c #D0D2D6",
"!. c #D6D7D9",
"~. c #DEE0E3",
"^. c #E1E2E6",
"/. c #E5E5E6",
"(. c #E5E6E7",
"). c #E8EAEC",
"_. c gray94",
"`. c #F4F4F4",
"'. c #F4F4F5",
"]. c #F7F8F8",
"[. c gray98",
"{. c gray99",
"}. c gray100",
"|. c None",
/* pixels */
"|.|.|.|.|.|.|.|.|.|.|.|.|.|.|.|.|.|.|.|.|.|.|.|.|.|.|.|.|.|.|.|.",
"|.|.|.|.|.|.|.|.|.|.|.|.|.|.|.|.|.|.|.|.|.|.|.|.|.|.|.|.|.|.|.|.",
"|.|.|.|.|.|.|.|.|.|.|.|.|.|.|.|.|.|.|.|.|.|.|.|.|.|.|.|.|.|.|.|.",
"|.|.|.|.|.|.|.|.|.|.|.|.|.|.|.|.|.|.|.|.|.|.|.|.|.|.|.|.|.|.|.|.",
"|.|.|.|.|.|.|.|.|.|.|.|.|.|.|.|.|.|.|.|.|.|.|.|.|.|.|.|.|.|.|.|.",
"|.|.|.|.|.|.|.|.|.|.|.|.|.|.|.|.|.|.|.|.|.|.|.|.|.|.|.|.|.|.|.|.",
"|.|.|.|.|.|.|.|.|.|.|.|.|.|.|.|.|.|.|.|.|.|.|.|.|.|.|.|.|.|.|.|.",
"|.|.+ 1 , , , , , , , , , , , , , , , , , , , , , , : |.|.|.|.|.",
"|.|.8 y y y y y y a a j j l l j j j g p y y y y y y y % |.|.|.|.",
"|.X 0 y n m N V C z b J J P P P J J M z Z C N N m y y - |.|.|.|.",
"|.  0 y 9.}.}.}.(./ T ! &.&.*.&.! ! T I Z.}.}.}.F.y y * |.|.|.|.",
"|.X 0 y v.}.}.}.}.A.;.<.3.3.3.( <.3.*.t.}.}.}.}.H.y y * |.|.|.|.",
"|.X 0 p v.}.}.}.}.}.h._ ] ] ] ] ] ] p.).}.}.}.}.H.p t * |.|.|.|.",
"|.  0 g m.}.}.}.}.}.}.R.d.y.O.%.i.D.'.}.}.}.}.}.J.g p * |.|.|.|.",
"|.  w k m.}.}.}.}.}.}.}.}.[.!._.}.}.}.}.}.}.}.}.J.z F ; |.|.|.|.",
"|.X w z B.}.}.}.}.}.}.}.}.}.}.}.}.}.}.}.}.}.}.}.K.G ~.}.4 |.|.|.",
"|.. r z m.}.}.}.z.C.].}.}.}.}.}.}.}.}.E.m.}.}.}.Q.^.}.}.}.4 |.|.",
"|.. w j m.}.}.}.S.] u.P.T./.}.'.W.Y.s.o.f.}.}.}.}.}.}.}.}.7 |.|.",
"|.X q j m.}.}.}.U.] ] O.O.%.y.w.O.O.] ] l.}.}.}.}.}.}.}.6 O |.|.",
"|.  q p b.}.}.}.U.3.( ] } ] O.o.] ] ( 3.k.}.}.}.}.}.}.6 O |.|.|.",
"|.  0 t v.}.}.}.j.=.;.<.3.3.3.3.3.3.*.*.a.}.}.}.}.}.0.# |.|.|.|.",
"|.X 0 t 9.}.}.}.g.U E &.*.*.<.;.&.&.! T q.}.}.}.}.0.s * |.|.|.|.",
"|.X 0 t D 5.5.8.G b J J I T I T I P J b S 8.7.5.4.s y - |.|.|.|.",
"|.|.9 y t t p y p a j l z b z z z l j a p y y y y y y $ |.|.|.|.",
"|.|.@ 2 2 2 2 2 2 2 2 2 3 3 3 3 3 2 2 2 2 2 2 2 2 2 > |.|.|.|.|.",
"|.|.|.|.|.|.|.|.|.|.|.|.|.|.|.|.|.|.|.|.|.|.|.|.|.|.|.|.|.|.|.|.",
"|.|.|.|.|.|.|.|.|.|.|.|.|.|.|.|.|.|.|.|.|.|.|.|.|.|.|.|.|.|.|.|.",
"|.|.|.|.|.|.|.|.|.|.|.|.|.|.|.|.|.|.|.|.|.|.|.|.|.|.|.|.|.|.|.|.",
"|.|.|.|.|.|.|.|.|.|.|.|.|.|.|.|.|.|.|.|.|.|.|.|.|.|.|.|.|.|.|.|.",
"|.|.|.|.|.|.|.|.|.|.|.|.|.|.|.|.|.|.|.|.|.|.|.|.|.|.|.|.|.|.|.|.",
"|.|.|.|.|.|.|.|.|.|.|.|.|.|.|.|.|.|.|.|.|.|.|.|.|.|.|.|.|.|.|.|.",
"|.|.|.|.|.|.|.|.|.|.|.|.|.|.|.|.|.|.|.|.|.|.|.|.|.|.|.|.|.|.|.|."
};
