<?xml version="1.0" encoding="UTF-8" standalone="no"?>
<!-- Created with Inkscape (http://www.inkscape.org/) -->
<svg
   xmlns:svg="http://www.w3.org/2000/svg"
   xmlns="http://www.w3.org/2000/svg"
   version="1.0"
   width="122"
   height="135.49001"
   viewBox="0 0 122 135.49"
   id="svg2931"
   xml:space="preserve"><defs
   id="defs2952" />
	
		<g
   id="snowflake">
			<path
   d="M 44.997,72.365 L 53,67.745 L 44.997,63.124 L 38.009,67.003 L 36.674,67.745 L 38.009,68.486 C 38.009,68.486 42.356,70.899 44.997,72.365 z M 44.987,64.273 L 51,67.745 L 44.987,71.216 L 38.733,67.745 C 39.714,67.2 43.61,65.038 44.987,64.273 z "
   id="path2936" />
			<path
   d="M 73.002,79.294 L 64.999,74.673 L 64.999,83.914 L 71.853,88.025 L 73.161,88.81 L 73.139,87.285 C 73.137,87.285 73.053,82.312 73.002,79.294 z M 65.999,83.349 L 65.999,76.407 L 72.012,79.879 L 72.132,87.029 L 65.999,83.349 z "
   id="path2938" />
			<path
   d="M 65,60.816 L 73.003,56.196 L 73.139,48.204 L 73.162,46.679 L 71.851,47.463 C 71.851,47.463 67.587,50.022 64.998,51.575 L 65,60.816 L 65,60.816 z M 66,52.143 L 72.133,48.461 C 72.113,49.585 72.039,54.038 72.014,55.613 L 66,59.084 L 66,52.143 z "
   id="path2940" />
			<path
   d="M 77.002,63.124 L 68.999,67.745 L 77.002,72.365 L 83.988,68.486 L 85.323,67.745 L 83.988,67.003 C 83.99,67.003 79.643,64.59 77.002,63.124 z M 77.012,71.216 L 71,67.745 L 77.014,64.273 L 83.268,67.744 L 77.012,71.216 z "
   id="path2942" />
			<path
   d="M 121.605,97.057 L 117.05,90.962 L 116.765,90.579 L 116.286,90.561 L 110.124,90.332 L 100.801,84.948 L 107.531,81.212 L 109.718,80 L 110.592,79.516 L 110.108,78.642 L 108.895,76.455 L 107.44,73.832 L 106.225,71.644 L 105.741,70.77 L 104.867,71.254 L 102.68,72.469 L 90.704,79.119 L 87.111,77.046 L 88.357,76.356 L 90.545,75.142 L 91.419,74.657 L 90.934,73.783 L 89.721,71.597 C 89.723,71.597 88.268,68.973 88.268,68.973 C 88.266,68.973 87.867,68.251 87.584,67.744 L 88.266,66.517 C 88.266,66.516 89.721,63.892 89.721,63.892 L 90.936,61.705 L 91.42,60.83 L 90.546,60.346 L 88.359,59.133 L 87.111,58.441 L 90.705,56.366 L 102.682,63.015 L 104.869,64.229 L 105.743,64.713 L 106.227,63.838 L 107.442,61.652 L 108.897,59.027 L 110.11,56.841 L 110.594,55.966 L 109.721,55.481 L 107.534,54.268 L 100.805,50.532 L 110.126,45.15 L 116.286,44.921 L 116.764,44.903 L 117.05,44.52 L 121.606,38.427 L 122,37.902 L 121.671,37.331 L 117.671,30.403 L 117.341,29.832 L 116.688,29.91 L 109.132,30.807 L 108.657,30.864 L 108.402,31.269 L 105.128,36.491 L 95.805,41.873 L 95.936,34.177 L 95.977,31.678 L 95.995,30.678 L 94.995,30.66 L 92.496,30.618 L 89.496,30.567 L 86.996,30.525 L 85.996,30.507 L 85.979,31.507 L 85.936,34.007 L 85.707,47.703 L 82.115,49.776 L 82.138,48.351 L 82.181,45.852 L 82.199,44.852 L 81.2,44.835 L 78.7,44.792 C 78.699,44.792 75.699,44.741 75.699,44.741 L 74.295,44.717 L 73.573,43.515 L 72.029,40.942 L 70.744,38.797 L 70.23,37.94 L 69.372,38.455 L 67.226,39.742 L 66.002,40.476 L 66.002,36.328 L 77.748,29.281 L 79.891,28 L 80.747,27.486 L 80.232,26.629 L 78.947,24.485 L 77.402,21.912 L 76.116,19.769 L 75.601,18.913 L 74.744,19.428 L 72.6,20.713 L 66,24.673 L 66,13.907 L 68.884,8.457 L 69.108,8.034 L 68.92,7.596 L 65.92,0.606 L 65.66,0 L 65.001,0 L 57.001,0 L 56.342,0 L 56.082,0.605 L 53.082,7.595 L 52.894,8.033 L 53.118,8.456 L 56.002,13.906 L 56.002,24.67 L 49.4,20.71 L 47.257,19.424 L 46.4,18.909 L 45.885,19.766 L 44.598,21.909 L 43.054,24.481 L 41.767,26.625 L 41.252,27.483 L 42.11,27.997 L 44.254,29.283 C 44.254,29.283 53.734,34.972 55.999,36.331 L 55.999,40.478 L 54.777,39.745 L 52.634,38.459 L 51.777,37.944 L 51.262,38.801 L 49.975,40.944 L 48.431,43.516 L 47.708,44.721 L 46.304,44.743 L 43.305,44.793 L 40.805,44.835 L 39.805,44.853 L 39.822,45.853 L 39.864,48.353 C 39.864,48.353 39.876,49.041 39.888,49.78 L 36.295,47.706 L 36.066,34.011 L 36.024,31.511 L 36.007,30.511 L 35.007,30.528 L 32.507,30.57 L 29.507,30.621 L 27.007,30.663 L 26.007,30.681 L 26.024,31.681 L 26.066,34.18 L 26.195,41.876 L 16.874,36.495 L 13.597,31.272 L 13.343,30.867 L 12.868,30.81 L 5.314,29.913 L 4.66,29.834 L 4.33,30.405 L 0.33,37.333 L 0,37.905 L 0.395,38.433 L 4.949,44.526 L 5.235,44.909 L 5.713,44.928 L 11.874,45.156 L 21.196,50.538 L 14.466,54.275 L 12.28,55.487 L 11.406,55.972 L 11.891,56.847 L 13.104,59.033 L 14.56,61.657 L 15.773,63.843 L 16.258,64.718 L 17.133,64.234 L 19.319,63.02 L 31.295,56.372 L 34.886,58.446 L 33.64,59.137 L 31.454,60.35 L 30.58,60.834 L 31.065,61.709 L 32.278,63.896 L 33.734,66.519 C 33.734,66.518 34.135,67.241 34.416,67.748 L 33.734,68.976 L 32.277,71.599 L 31.064,73.785 L 30.578,74.659 L 31.453,75.144 L 33.64,76.358 L 34.888,77.05 L 31.295,79.123 L 19.319,72.477 L 17.133,71.263 L 16.258,70.777 L 15.773,71.652 L 14.56,73.84 L 13.104,76.463 L 11.891,78.65 L 11.406,79.525 L 12.281,80.008 L 14.467,81.222 L 21.197,84.957 L 11.875,90.341 L 5.716,90.569 L 5.238,90.587 L 4.95,90.962 L 0.396,97.057 L 0.001,97.584 L 0.331,98.154 L 4.331,105.082 L 4.661,105.652 L 5.316,105.575 L 12.87,104.679 L 13.345,104.621 L 13.599,104.216 L 16.876,98.995 L 26.197,93.613 L 26.068,101.309 L 26.026,103.808 L 26.009,104.808 L 27.009,104.825 L 29.509,104.867 L 32.509,104.919 L 35.009,104.961 L 36.009,104.979 L 36.026,103.979 L 36.068,101.479 L 36.298,87.784 L 39.89,85.71 L 39.866,87.137 L 39.824,89.636 L 39.807,90.634 L 40.807,90.653 L 43.307,90.696 L 46.307,90.747 L 47.712,90.77 L 48.433,91.974 C 48.433,91.975 49.976,94.546 49.976,94.546 L 51.262,96.691 L 51.776,97.547 L 52.633,97.032 L 54.778,95.746 L 56.001,95.013 L 56.001,99.159 L 44.255,106.206 L 42.111,107.493 L 41.254,108.008 L 41.769,108.865 L 43.056,111.011 L 44.6,113.582 L 45.887,115.726 L 46.402,116.582 L 47.259,116.067 L 49.402,114.781 L 56.002,110.822 L 56.002,121.586 L 53.118,127.034 L 52.894,127.457 L 53.082,127.896 L 56.082,134.886 L 56.342,135.49 L 57.001,135.49 L 65.001,135.49 L 65.66,135.49 L 65.92,134.886 L 68.92,127.896 L 69.109,127.457 L 68.884,127.034 L 66,121.586 L 66,110.82 L 72.601,114.779 L 74.745,116.065 L 75.601,116.58 L 76.117,115.724 L 77.404,113.58 L 78.948,111.008 L 80.234,108.863 L 80.749,108.006 L 79.893,107.491 L 77.747,106.204 L 66.001,99.157 L 66.001,95.011 L 67.223,95.743 L 69.368,97.028 L 70.225,97.542 L 70.739,96.687 L 72.026,94.543 L 73.571,91.972 L 74.294,90.767 L 75.698,90.744 L 78.696,90.694 L 81.196,90.652 L 82.196,90.635 L 82.18,89.635 L 82.137,87.135 C 82.137,87.135 82.125,86.446 82.114,85.707 L 85.707,87.781 L 85.936,101.476 L 85.977,103.976 L 85.995,104.976 L 86.995,104.958 L 89.495,104.916 C 89.496,104.916 92.496,104.864 92.496,104.864 C 92.495,104.864 94.994,104.822 94.994,104.822 L 95.994,104.805 L 95.977,103.805 L 95.934,101.306 L 95.805,93.609 L 105.127,98.992 L 108.402,104.213 L 108.656,104.618 L 109.131,104.676 L 116.686,105.572 L 117.34,105.649 L 117.67,105.079 L 121.67,98.151 L 121.999,97.581 L 121.605,97.057 z M 94.775,91.862 L 94.935,101.325 L 94.976,103.824 L 92.478,103.866 L 89.478,103.918 L 86.978,103.96 L 86.935,101.46 C 86.935,101.46 86.773,91.722 86.698,87.198 L 81.084,83.957 L 81.141,87.15 L 81.182,89.65 L 78.682,89.692 L 75.684,89.742 L 73.725,89.774 L 72.715,91.456 L 71.171,94.028 L 69.884,96.171 L 67.74,94.887 L 65.003,93.243 L 65.003,99.722 L 77.234,107.06 L 79.379,108.347 L 78.093,110.492 L 76.549,113.064 L 75.262,115.207 L 73.118,113.921 L 65.003,109.054 L 65.003,128.492 L 57.003,128.492 L 57.003,109.054 L 48.888,113.921 L 46.745,115.207 L 45.458,113.064 L 43.914,110.492 L 42.627,108.347 L 44.771,107.06 C 44.771,107.06 53.123,102.048 57.002,99.722 L 57.002,93.242 L 54.264,94.887 L 52.12,96.172 L 50.834,94.028 L 49.291,91.456 L 48.284,89.775 L 46.324,89.742 L 43.324,89.691 L 40.824,89.648 L 40.866,87.149 L 40.919,83.958 L 35.307,87.198 L 35.067,101.46 L 35.025,103.96 L 32.525,103.918 L 29.525,103.866 L 27.025,103.824 L 27.067,101.325 L 27.226,91.862 L 10.393,101.581 L 6.393,94.653 L 23.225,84.933 L 14.951,80.338 L 12.765,79.125 L 13.978,76.939 L 15.434,74.316 L 16.647,72.128 L 18.833,73.343 C 18.833,73.343 27.349,78.072 31.304,80.266 L 36.917,77.027 L 34.125,75.476 L 31.938,74.262 L 33.152,72.075 L 34.608,69.452 L 35.559,67.74 L 34.608,66.026 L 33.152,63.403 L 31.939,61.217 L 34.125,60.003 L 36.916,58.454 L 31.304,55.214 L 18.833,62.14 L 16.647,63.354 L 15.434,61.167 L 13.978,58.543 L 12.765,56.357 L 14.951,55.144 L 23.225,50.549 L 6.392,40.834 L 10.392,33.906 L 27.225,43.625 L 27.066,34.162 L 27.024,31.663 L 29.524,31.621 L 32.524,31.57 L 35.024,31.528 L 35.066,34.028 C 35.066,34.028 35.229,43.767 35.305,48.29 L 40.918,51.531 L 40.864,48.338 L 40.822,45.838 L 43.322,45.796 L 46.321,45.746 L 48.28,45.714 L 49.289,44.033 L 50.833,41.461 L 52.12,39.318 L 54.263,40.604 L 57,42.246 L 57,35.767 L 44.769,28.428 L 42.625,27.142 L 43.912,24.997 L 45.456,22.425 L 46.743,20.282 L 48.886,21.568 L 57.001,26.437 L 57.001,7 L 65.001,7 L 65.001,26.439 L 73.116,21.57 L 75.26,20.284 L 76.547,22.428 L 78.091,24.999 L 79.376,27.144 L 77.232,28.43 C 77.232,28.43 68.879,33.441 65.001,35.768 L 65.001,42.248 L 67.738,40.605 L 69.884,39.318 L 71.169,41.462 L 72.713,44.034 L 73.72,45.714 L 75.681,45.747 L 78.681,45.798 L 81.181,45.841 L 81.138,48.34 L 81.083,51.531 L 86.694,48.291 L 86.932,34.029 L 86.975,31.529 L 89.475,31.571 L 92.475,31.622 L 94.973,31.664 L 94.932,34.163 L 94.772,43.626 L 111.606,33.907 L 115.606,40.835 L 98.772,50.554 L 107.046,55.148 L 109.233,56.361 L 108.02,58.547 L 106.565,61.171 L 105.35,63.358 L 103.163,62.144 C 103.163,62.144 94.646,57.416 90.691,55.221 L 85.078,58.461 L 87.871,60.012 L 90.059,61.225 L 88.844,63.411 L 87.389,66.034 L 86.438,67.746 L 87.389,69.46 L 88.844,72.084 L 90.057,74.271 L 87.87,75.485 L 85.08,77.034 L 90.691,80.273 L 103.162,73.349 L 105.35,72.134 L 106.563,74.322 L 108.018,76.945 L 109.231,79.131 L 107.045,80.344 L 98.774,84.938 L 115.608,94.658 L 111.608,101.586"
   id="path2944" />
			<path
   d="M 48.997,56.195 L 57,60.816 L 57,51.575 L 50.146,47.463 L 48.838,46.679 L 48.863,48.204 C 48.863,48.204 48.946,53.177 48.997,56.195 z M 56,52.143 L 56,59.084 L 49.988,55.612 L 49.868,48.462 L 56,52.143 z "
   id="path2946" />
			<path
   d="M 56.999,74.673 L 48.996,79.293 L 48.862,87.285 L 48.836,88.81 L 50.146,88.025 C 50.146,88.025 54.41,85.466 56.999,83.914 L 56.999,74.673 z M 55.999,83.349 L 49.867,87.029 L 49.987,79.878 L 55.999,76.407 L 55.999,83.349 z "
   id="path2948" />
			<polygon
   points="105.936,78.331 104.479,75.708 90.771,83.319 80.109,77.164 86.76,73.473 85.305,70.85 77.08,75.414 64,67.862 77.08,60.311 85.307,64.876 86.762,62.253 80.109,58.562 90.771,52.406 104.479,60.018 105.936,57.395 93.801,50.656 106.23,43.48 104.73,40.882 92.301,48.059 92.535,34.181 89.535,34.129 89.271,49.809 78.609,55.963 78.738,48.356 75.738,48.307 75.581,57.712 62.5,65.266 62.5,50.16 70.566,45.32 69.023,42.748 62.5,46.662 62.5,34.351 75.945,26.284 74.402,23.712 62.5,30.853 62.5,16.5 59.5,16.5 59.5,30.853 47.598,23.712 46.055,26.284 59.5,34.351 59.5,46.662 52.976,42.748 51.433,45.32 59.5,50.16 59.5,65.266 46.42,57.712 46.261,48.307 43.261,48.356 43.389,55.963 32.728,49.809 32.464,34.129 29.464,34.181 29.698,48.059 17.269,40.882 15.769,43.48 28.199,50.656 16.063,57.395 17.519,60.018 31.229,52.405 41.89,58.562 35.238,62.253 36.694,64.876 44.92,60.312 58,67.862 44.92,75.414 36.693,70.849 35.237,73.472 41.89,77.164 31.228,83.319 17.519,75.708 16.063,78.331 28.199,85.068 15.769,92.245 17.269,94.844 29.698,87.667 29.464,101.544 32.464,101.596 32.728,85.917 43.389,79.763 43.261,87.368 46.261,87.419 46.42,78.014 59.5,70.46 59.5,85.564 51.433,90.404 52.976,92.978 59.5,89.062 59.5,101.374 46.054,109.441 47.598,112.015 59.5,104.873 59.5,119.226 62.5,119.226 62.5,104.873 74.402,112.015 75.945,109.441 62.5,101.374 62.5,89.062 69.023,92.978 70.566,90.404 62.5,85.564 62.5,70.46 75.581,78.014 75.738,87.42 78.738,87.369 78.609,79.763 89.271,85.918 89.535,101.596 92.535,101.544 92.301,87.667 104.73,94.844 106.23,92.245 93.801,85.069 105.936,78.331 "
   id="polygon2819" />
		</g>
	</svg>