<?xml version="1.0" encoding="UTF-8" standalone="no"?>
<!-- Created with Inkscape (http://www.inkscape.org/) -->

<svg
   xmlns:dc="http://purl.org/dc/elements/1.1/"
   xmlns:cc="http://creativecommons.org/ns#"
   xmlns:rdf="http://www.w3.org/1999/02/22-rdf-syntax-ns#"
   xmlns:svg="http://www.w3.org/2000/svg"
   xmlns="http://www.w3.org/2000/svg"
   xmlns:xlink="http://www.w3.org/1999/xlink"
   xmlns:sodipodi="http://sodipodi.sourceforge.net/DTD/sodipodi-0.dtd"
   xmlns:inkscape="http://www.inkscape.org/namespaces/inkscape"
   width="17.014498"
   height="11.169695"
   id="svg2"
   sodipodi:version="0.32"
   inkscape:version="0.47pre0 r21549"
   sodipodi:docname="arrow.svg"
   inkscape:output_extension="org.inkscape.output.svg.inkscape"
   version="1.0">
  <sodipodi:namedview
     id="base"
     pagecolor="#ffffff"
     bordercolor="#666666"
     borderopacity="1.0"
     gridtolerance="10000"
     guidetolerance="10"
     objecttolerance="10"
     inkscape:pageopacity="0.0"
     inkscape:pageshadow="2"
     inkscape:zoom="5.6568543"
     inkscape:cx="8.2285565"
     inkscape:cy="3.1594625"
     inkscape:document-units="px"
     inkscape:current-layer="layer1"
     inkscape:window-width="1429"
     inkscape:window-height="735"
     inkscape:window-x="8"
     inkscape:window-y="10"
     showgrid="false"
     inkscape:window-maximized="0"
     inkscape:snap-object-midpoints="true"
     inkscape:snap-page="true" />
  <defs
     id="defs4">
    <linearGradient
       inkscape:collect="always"
       id="linearGradient5971">
      <stop
         style="stop-color:#000000;stop-opacity:1;"
         offset="0"
         id="stop5973" />
      <stop
         style="stop-color:#000000;stop-opacity:0;"
         offset="1"
         id="stop5975" />
    </linearGradient>
    <inkscape:perspective
       sodipodi:type="inkscape:persp3d"
       inkscape:vp_x="0 : 5.5848475 : 1"
       inkscape:vp_y="0 : 1000 : 0"
       inkscape:vp_z="17.014498 : 5.5848475 : 1"
       inkscape:persp3d-origin="8.5072489 : 3.7232316 : 1"
       id="perspective8" />
    <radialGradient
       inkscape:collect="always"
       xlink:href="#linearGradient5971"
       id="radialGradient5979"
       cx="8.5"
       cy="5.578125"
       fx="8.5"
       fy="5.578125"
       r="9.1884527"
       gradientTransform="matrix(1,0,0,0.6820058,0,1.7738116)"
       gradientUnits="userSpaceOnUse" />
    <inkscape:perspective
       id="perspective2881"
       inkscape:persp3d-origin="0.5 : 0.33333333 : 1"
       inkscape:vp_z="1 : 0.5 : 1"
       inkscape:vp_y="0 : 1000 : 0"
       inkscape:vp_x="0 : 0.5 : 1"
       sodipodi:type="inkscape:persp3d" />
  </defs>
  <metadata
     id="metadata7">
    <rdf:RDF>
      <cc:Work
         rdf:about="">
        <dc:format>image/svg+xml</dc:format>
        <dc:type
           rdf:resource="http://purl.org/dc/dcmitype/StillImage" />
        <dc:title></dc:title>
      </cc:Work>
    </rdf:RDF>
  </metadata>
  <g
     inkscape:label="Layer 1"
     id="layer1"
     inkscape:groupmode="layer"
     transform="translate(-85.911988,-60.010521)">
    <path
       style="fill:#000000"
       d="M 8.9375 0 L 8.5 1.96875 L 8.15625 3.40625 C 7.622312 3.267139 7.120493 3.018601 6.6875 2.6875 L 8.5625 6 C 8.7171443 5.9148341 8.9047279 5.84375 9.09375 5.84375 C 9.2981201 5.84375 9.4619318 5.932807 9.625 6.03125 L 11.625 2.6875 C 11.188489 3.0304 10.661208 3.271084 10.09375 3.40625 L 9.75 1.96875 L 9.3125 0 C 9.24759 0.01448 9.194274 0.03125 9.125 0.03125 C 9.06133 0.03125 8.997539 0.01229 8.9375 0 z "
       transform="translate(85.911988,60.010521)"
       id="path2829" />
    <path
       sodipodi:type="arc"
       style="fill:#000000;fill-opacity:1"
       id="path2906"
       sodipodi:cx="8.137023"
       sodipodi:cy="7.5550094"
       sodipodi:rx="0.81210989"
       sodipodi:ry="0.81210989"
       d="m 8.9491329,7.5550094 a 0.81210989,0.81210989 0 1 1 -1.6242198,0 0.81210989,0.81210989 0 1 1 1.6242198,0 z"
       transform="translate(86.863998,59.393012)" />
    <path
       style="fill:#000000"
       d="M 10.15625 6.9375 C 10.15625 7.3397779 9.9194798 7.6571866 9.59375 7.84375 L 11.5 11.25 C 11.4213 10.700521 11.489581 10.121518 11.65625 9.5625 L 13.0625 10 L 15 10.59375 C 15.0199 10.5303 15.0278 10.466243 15.0625 10.40625 C 15.0943 10.35111 15.14679 10.327101 15.1875 10.28125 L 13.6875 8.90625 L 12.625 7.90625 C 13.01244 7.513402 13.46551 7.178183 13.96875 6.96875 L 10.15625 6.9375 z "
       transform="translate(85.911988,60.010521)"
       id="path3867" />
    <path
       style="fill:#000000"
       d="M 8 6.9375 L 4.21875 6.96875 C 4.72199 7.178183 5.17506 7.513402 5.5625 7.90625 L 4.5 8.90625 L 3 10.28125 C 3.04071 10.327101 3.0932 10.35111 3.125 10.40625 C 3.1597 10.466243 3.1676 10.5303 3.1875 10.59375 L 5.125 10 L 6.53125 9.5625 C 6.69792 10.121518 6.7662 10.700521 6.6875 11.25 L 8.5625 7.875 C 8.2280983 7.6908379 8 7.3462402 8 6.9375 z "
       transform="translate(85.911988,60.010521)"
       id="path3869" />
  </g>
</svg>
